<?xml version="1.0" encoding="utf-8" standalone="no"?>
<!DOCTYPE svg PUBLIC "-//W3C//DTD SVG 1.1//EN"
  "http://www.w3.org/Graphics/SVG/1.1/DTD/svg11.dtd">
<!-- Created with matplotlib (https://matplotlib.org/) -->
<svg height="432pt" version="1.1" viewBox="0 0 864 432" width="864pt" xmlns="http://www.w3.org/2000/svg" xmlns:xlink="http://www.w3.org/1999/xlink">
 <defs>
  <style type="text/css">
*{stroke-linecap:butt;stroke-linejoin:round;}
  </style>
 </defs>
 <g id="figure_1">
  <g id="patch_1">
   <path d="M 0 432 
L 864 432 
L 864 0 
L 0 0 
z
" style="fill:#ffffff;"/>
  </g>
  <g id="axes_1">
   <g id="patch_2">
    <path d="M 108 200.094545 
L 777.6 200.094545 
L 777.6 51.84 
L 108 51.84 
z
" style="fill:#ffffff;"/>
   </g>
   <g id="PolyCollection_1">
    <path clip-path="url(#p634fd5dd2c)" d="M 158.727273 153.569117 
L 158.727273 164.853577 
L 179.018182 168.750131 
L 199.309091 171.244193 
L 219.6 173.179263 
L 239.890909 174.798782 
L 260.181818 176.205817 
L 280.472727 177.455126 
L 300.763636 178.587848 
L 321.054545 179.6309 
L 341.345455 180.600103 
L 361.636364 181.505032 
L 381.927273 182.360687 
L 402.218182 183.177002 
L 422.509091 183.961531 
L 442.8 184.715522 
L 463.090909 185.437133 
L 483.381818 186.12784 
L 503.672727 186.795319 
L 523.963636 187.442862 
L 544.254545 188.068423 
L 564.545455 188.670831 
L 584.836364 189.255327 
L 605.127273 189.827494 
L 625.418182 190.385659 
L 645.709091 190.92471 
L 666 191.442574 
L 686.290909 191.941943 
L 706.581818 192.428457 
L 726.872727 192.900541 
L 747.163636 193.355702 
L 747.163636 125.066992 
L 747.163636 125.066992 
L 726.872727 125.522153 
L 706.581818 125.994237 
L 686.290909 126.480751 
L 666 126.980121 
L 645.709091 127.497985 
L 625.418182 128.037036 
L 605.127273 128.595201 
L 584.836364 129.167368 
L 564.545455 129.751864 
L 544.254545 130.354272 
L 523.963636 130.979832 
L 503.672727 131.627376 
L 483.381818 132.294855 
L 463.090909 132.985561 
L 442.8 133.707172 
L 422.509091 134.461164 
L 402.218182 135.245692 
L 381.927273 136.062007 
L 361.636364 136.917663 
L 341.345455 137.822591 
L 321.054545 138.791794 
L 300.763636 139.834846 
L 280.472727 140.967569 
L 260.181818 142.216877 
L 239.890909 143.623912 
L 219.6 145.243432 
L 199.309091 147.178501 
L 179.018182 149.672564 
L 158.727273 153.569117 
z
" style="fill:#1f77b4;fill-opacity:0.25;"/>
   </g>
   <g id="matplotlib.axis_1">
    <g id="xtick_1">
     <g id="line2d_1">
      <defs>
       <path d="M 0 0 
L 0 3.5 
" id="m09aedc2767" style="stroke:#000000;stroke-width:0.8;"/>
      </defs>
      <g>
       <use style="stroke:#000000;stroke-width:0.8;" x="138.436364" xlink:href="#m09aedc2767" y="200.094545"/>
      </g>
     </g>
     <g id="text_1">
      <!-- 0 -->
      <defs>
       <path d="M 31.78125 66.40625 
Q 24.171875 66.40625 20.328125 58.90625 
Q 16.5 51.421875 16.5 36.375 
Q 16.5 21.390625 20.328125 13.890625 
Q 24.171875 6.390625 31.78125 6.390625 
Q 39.453125 6.390625 43.28125 13.890625 
Q 47.125 21.390625 47.125 36.375 
Q 47.125 51.421875 43.28125 58.90625 
Q 39.453125 66.40625 31.78125 66.40625 
z
M 31.78125 74.21875 
Q 44.046875 74.21875 50.515625 64.515625 
Q 56.984375 54.828125 56.984375 36.375 
Q 56.984375 17.96875 50.515625 8.265625 
Q 44.046875 -1.421875 31.78125 -1.421875 
Q 19.53125 -1.421875 13.0625 8.265625 
Q 6.59375 17.96875 6.59375 36.375 
Q 6.59375 54.828125 13.0625 64.515625 
Q 19.53125 74.21875 31.78125 74.21875 
z
" id="DejaVuSans-48"/>
      </defs>
      <g transform="translate(135.255114 214.692983)scale(0.1 -0.1)">
       <use xlink:href="#DejaVuSans-48"/>
      </g>
     </g>
    </g>
    <g id="xtick_2">
     <g id="line2d_2">
      <g>
       <use style="stroke:#000000;stroke-width:0.8;" x="239.890909" xlink:href="#m09aedc2767" y="200.094545"/>
      </g>
     </g>
     <g id="text_2">
      <!-- 5 -->
      <defs>
       <path d="M 10.796875 72.90625 
L 49.515625 72.90625 
L 49.515625 64.59375 
L 19.828125 64.59375 
L 19.828125 46.734375 
Q 21.96875 47.46875 24.109375 47.828125 
Q 26.265625 48.1875 28.421875 48.1875 
Q 40.625 48.1875 47.75 41.5 
Q 54.890625 34.8125 54.890625 23.390625 
Q 54.890625 11.625 47.5625 5.09375 
Q 40.234375 -1.421875 26.90625 -1.421875 
Q 22.3125 -1.421875 17.546875 -0.640625 
Q 12.796875 0.140625 7.71875 1.703125 
L 7.71875 11.625 
Q 12.109375 9.234375 16.796875 8.0625 
Q 21.484375 6.890625 26.703125 6.890625 
Q 35.15625 6.890625 40.078125 11.328125 
Q 45.015625 15.765625 45.015625 23.390625 
Q 45.015625 31 40.078125 35.4375 
Q 35.15625 39.890625 26.703125 39.890625 
Q 22.75 39.890625 18.8125 39.015625 
Q 14.890625 38.140625 10.796875 36.28125 
z
" id="DejaVuSans-53"/>
      </defs>
      <g transform="translate(236.709659 214.692983)scale(0.1 -0.1)">
       <use xlink:href="#DejaVuSans-53"/>
      </g>
     </g>
    </g>
    <g id="xtick_3">
     <g id="line2d_3">
      <g>
       <use style="stroke:#000000;stroke-width:0.8;" x="341.345455" xlink:href="#m09aedc2767" y="200.094545"/>
      </g>
     </g>
     <g id="text_3">
      <!-- 10 -->
      <defs>
       <path d="M 12.40625 8.296875 
L 28.515625 8.296875 
L 28.515625 63.921875 
L 10.984375 60.40625 
L 10.984375 69.390625 
L 28.421875 72.90625 
L 38.28125 72.90625 
L 38.28125 8.296875 
L 54.390625 8.296875 
L 54.390625 0 
L 12.40625 0 
z
" id="DejaVuSans-49"/>
      </defs>
      <g transform="translate(334.982955 214.692983)scale(0.1 -0.1)">
       <use xlink:href="#DejaVuSans-49"/>
       <use x="63.623047" xlink:href="#DejaVuSans-48"/>
      </g>
     </g>
    </g>
    <g id="xtick_4">
     <g id="line2d_4">
      <g>
       <use style="stroke:#000000;stroke-width:0.8;" x="442.8" xlink:href="#m09aedc2767" y="200.094545"/>
      </g>
     </g>
     <g id="text_4">
      <!-- 15 -->
      <g transform="translate(436.4375 214.692983)scale(0.1 -0.1)">
       <use xlink:href="#DejaVuSans-49"/>
       <use x="63.623047" xlink:href="#DejaVuSans-53"/>
      </g>
     </g>
    </g>
    <g id="xtick_5">
     <g id="line2d_5">
      <g>
       <use style="stroke:#000000;stroke-width:0.8;" x="544.254545" xlink:href="#m09aedc2767" y="200.094545"/>
      </g>
     </g>
     <g id="text_5">
      <!-- 20 -->
      <defs>
       <path d="M 19.1875 8.296875 
L 53.609375 8.296875 
L 53.609375 0 
L 7.328125 0 
L 7.328125 8.296875 
Q 12.9375 14.109375 22.625 23.890625 
Q 32.328125 33.6875 34.8125 36.53125 
Q 39.546875 41.84375 41.421875 45.53125 
Q 43.3125 49.21875 43.3125 52.78125 
Q 43.3125 58.59375 39.234375 62.25 
Q 35.15625 65.921875 28.609375 65.921875 
Q 23.96875 65.921875 18.8125 64.3125 
Q 13.671875 62.703125 7.8125 59.421875 
L 7.8125 69.390625 
Q 13.765625 71.78125 18.9375 73 
Q 24.125 74.21875 28.421875 74.21875 
Q 39.75 74.21875 46.484375 68.546875 
Q 53.21875 62.890625 53.21875 53.421875 
Q 53.21875 48.921875 51.53125 44.890625 
Q 49.859375 40.875 45.40625 35.40625 
Q 44.1875 33.984375 37.640625 27.21875 
Q 31.109375 20.453125 19.1875 8.296875 
z
" id="DejaVuSans-50"/>
      </defs>
      <g transform="translate(537.892045 214.692983)scale(0.1 -0.1)">
       <use xlink:href="#DejaVuSans-50"/>
       <use x="63.623047" xlink:href="#DejaVuSans-48"/>
      </g>
     </g>
    </g>
    <g id="xtick_6">
     <g id="line2d_6">
      <g>
       <use style="stroke:#000000;stroke-width:0.8;" x="645.709091" xlink:href="#m09aedc2767" y="200.094545"/>
      </g>
     </g>
     <g id="text_6">
      <!-- 25 -->
      <g transform="translate(639.346591 214.692983)scale(0.1 -0.1)">
       <use xlink:href="#DejaVuSans-50"/>
       <use x="63.623047" xlink:href="#DejaVuSans-53"/>
      </g>
     </g>
    </g>
    <g id="xtick_7">
     <g id="line2d_7">
      <g>
       <use style="stroke:#000000;stroke-width:0.8;" x="747.163636" xlink:href="#m09aedc2767" y="200.094545"/>
      </g>
     </g>
     <g id="text_7">
      <!-- 30 -->
      <defs>
       <path d="M 40.578125 39.3125 
Q 47.65625 37.796875 51.625 33 
Q 55.609375 28.21875 55.609375 21.1875 
Q 55.609375 10.40625 48.1875 4.484375 
Q 40.765625 -1.421875 27.09375 -1.421875 
Q 22.515625 -1.421875 17.65625 -0.515625 
Q 12.796875 0.390625 7.625 2.203125 
L 7.625 11.71875 
Q 11.71875 9.328125 16.59375 8.109375 
Q 21.484375 6.890625 26.8125 6.890625 
Q 36.078125 6.890625 40.9375 10.546875 
Q 45.796875 14.203125 45.796875 21.1875 
Q 45.796875 27.640625 41.28125 31.265625 
Q 36.765625 34.90625 28.71875 34.90625 
L 20.21875 34.90625 
L 20.21875 43.015625 
L 29.109375 43.015625 
Q 36.375 43.015625 40.234375 45.921875 
Q 44.09375 48.828125 44.09375 54.296875 
Q 44.09375 59.90625 40.109375 62.90625 
Q 36.140625 65.921875 28.71875 65.921875 
Q 24.65625 65.921875 20.015625 65.03125 
Q 15.375 64.15625 9.8125 62.3125 
L 9.8125 71.09375 
Q 15.4375 72.65625 20.34375 73.4375 
Q 25.25 74.21875 29.59375 74.21875 
Q 40.828125 74.21875 47.359375 69.109375 
Q 53.90625 64.015625 53.90625 55.328125 
Q 53.90625 49.265625 50.4375 45.09375 
Q 46.96875 40.921875 40.578125 39.3125 
z
" id="DejaVuSans-51"/>
      </defs>
      <g transform="translate(740.801136 214.692983)scale(0.1 -0.1)">
       <use xlink:href="#DejaVuSans-51"/>
       <use x="63.623047" xlink:href="#DejaVuSans-48"/>
      </g>
     </g>
    </g>
   </g>
   <g id="matplotlib.axis_2">
    <g id="ytick_1">
     <g id="line2d_8">
      <defs>
       <path d="M 0 0 
L -3.5 0 
" id="m1244c6a74b" style="stroke:#000000;stroke-width:0.8;"/>
      </defs>
      <g>
       <use style="stroke:#000000;stroke-width:0.8;" x="108" xlink:href="#m1244c6a74b" y="184.369473"/>
      </g>
     </g>
     <g id="text_8">
      <!-- −0.25 -->
      <defs>
       <path d="M 10.59375 35.5 
L 73.1875 35.5 
L 73.1875 27.203125 
L 10.59375 27.203125 
z
" id="DejaVuSans-8722"/>
       <path d="M 10.6875 12.40625 
L 21 12.40625 
L 21 0 
L 10.6875 0 
z
" id="DejaVuSans-46"/>
      </defs>
      <g transform="translate(70.354687 188.168692)scale(0.1 -0.1)">
       <use xlink:href="#DejaVuSans-8722"/>
       <use x="83.789062" xlink:href="#DejaVuSans-48"/>
       <use x="147.412109" xlink:href="#DejaVuSans-46"/>
       <use x="179.199219" xlink:href="#DejaVuSans-50"/>
       <use x="242.822266" xlink:href="#DejaVuSans-53"/>
      </g>
     </g>
    </g>
    <g id="ytick_2">
     <g id="line2d_9">
      <g>
       <use style="stroke:#000000;stroke-width:0.8;" x="108" xlink:href="#m1244c6a74b" y="159.211347"/>
      </g>
     </g>
     <g id="text_9">
      <!-- 0.00 -->
      <g transform="translate(78.734375 163.010566)scale(0.1 -0.1)">
       <use xlink:href="#DejaVuSans-48"/>
       <use x="63.623047" xlink:href="#DejaVuSans-46"/>
       <use x="95.410156" xlink:href="#DejaVuSans-48"/>
       <use x="159.033203" xlink:href="#DejaVuSans-48"/>
      </g>
     </g>
    </g>
    <g id="ytick_3">
     <g id="line2d_10">
      <g>
       <use style="stroke:#000000;stroke-width:0.8;" x="108" xlink:href="#m1244c6a74b" y="134.053221"/>
      </g>
     </g>
     <g id="text_10">
      <!-- 0.25 -->
      <g transform="translate(78.734375 137.85244)scale(0.1 -0.1)">
       <use xlink:href="#DejaVuSans-48"/>
       <use x="63.623047" xlink:href="#DejaVuSans-46"/>
       <use x="95.410156" xlink:href="#DejaVuSans-50"/>
       <use x="159.033203" xlink:href="#DejaVuSans-53"/>
      </g>
     </g>
    </g>
    <g id="ytick_4">
     <g id="line2d_11">
      <g>
       <use style="stroke:#000000;stroke-width:0.8;" x="108" xlink:href="#m1244c6a74b" y="108.895095"/>
      </g>
     </g>
     <g id="text_11">
      <!-- 0.50 -->
      <g transform="translate(78.734375 112.694314)scale(0.1 -0.1)">
       <use xlink:href="#DejaVuSans-48"/>
       <use x="63.623047" xlink:href="#DejaVuSans-46"/>
       <use x="95.410156" xlink:href="#DejaVuSans-53"/>
       <use x="159.033203" xlink:href="#DejaVuSans-48"/>
      </g>
     </g>
    </g>
    <g id="ytick_5">
     <g id="line2d_12">
      <g>
       <use style="stroke:#000000;stroke-width:0.8;" x="108" xlink:href="#m1244c6a74b" y="83.736969"/>
      </g>
     </g>
     <g id="text_12">
      <!-- 0.75 -->
      <defs>
       <path d="M 8.203125 72.90625 
L 55.078125 72.90625 
L 55.078125 68.703125 
L 28.609375 0 
L 18.3125 0 
L 43.21875 64.59375 
L 8.203125 64.59375 
z
" id="DejaVuSans-55"/>
      </defs>
      <g transform="translate(78.734375 87.536188)scale(0.1 -0.1)">
       <use xlink:href="#DejaVuSans-48"/>
       <use x="63.623047" xlink:href="#DejaVuSans-46"/>
       <use x="95.410156" xlink:href="#DejaVuSans-55"/>
       <use x="159.033203" xlink:href="#DejaVuSans-53"/>
      </g>
     </g>
    </g>
    <g id="ytick_6">
     <g id="line2d_13">
      <g>
       <use style="stroke:#000000;stroke-width:0.8;" x="108" xlink:href="#m1244c6a74b" y="58.578843"/>
      </g>
     </g>
     <g id="text_13">
      <!-- 1.00 -->
      <g transform="translate(78.734375 62.378062)scale(0.1 -0.1)">
       <use xlink:href="#DejaVuSans-49"/>
       <use x="63.623047" xlink:href="#DejaVuSans-46"/>
       <use x="95.410156" xlink:href="#DejaVuSans-48"/>
       <use x="159.033203" xlink:href="#DejaVuSans-48"/>
      </g>
     </g>
    </g>
   </g>
   <g id="LineCollection_1">
    <path clip-path="url(#p634fd5dd2c)" d="M 138.436364 159.211347 
L 138.436364 58.578843 
" style="fill:none;stroke:#000000;stroke-width:1.5;"/>
    <path clip-path="url(#p634fd5dd2c)" d="M 158.727273 159.211347 
L 158.727273 62.213246 
" style="fill:none;stroke:#000000;stroke-width:1.5;"/>
    <path clip-path="url(#p634fd5dd2c)" d="M 179.018182 159.211347 
L 179.018182 66.705822 
" style="fill:none;stroke:#000000;stroke-width:1.5;"/>
    <path clip-path="url(#p634fd5dd2c)" d="M 199.309091 159.211347 
L 199.309091 69.754453 
" style="fill:none;stroke:#000000;stroke-width:1.5;"/>
    <path clip-path="url(#p634fd5dd2c)" d="M 219.6 159.211347 
L 219.6 71.957689 
" style="fill:none;stroke:#000000;stroke-width:1.5;"/>
    <path clip-path="url(#p634fd5dd2c)" d="M 239.890909 159.211347 
L 239.890909 73.82012 
" style="fill:none;stroke:#000000;stroke-width:1.5;"/>
    <path clip-path="url(#p634fd5dd2c)" d="M 260.181818 159.211347 
L 260.181818 75.532731 
" style="fill:none;stroke:#000000;stroke-width:1.5;"/>
    <path clip-path="url(#p634fd5dd2c)" d="M 280.472727 159.211347 
L 280.472727 76.883783 
" style="fill:none;stroke:#000000;stroke-width:1.5;"/>
    <path clip-path="url(#p634fd5dd2c)" d="M 300.763636 159.211347 
L 300.763636 77.957201 
" style="fill:none;stroke:#000000;stroke-width:1.5;"/>
    <path clip-path="url(#p634fd5dd2c)" d="M 321.054545 159.211347 
L 321.054545 78.930633 
" style="fill:none;stroke:#000000;stroke-width:1.5;"/>
    <path clip-path="url(#p634fd5dd2c)" d="M 341.345455 159.211347 
L 341.345455 79.918679 
" style="fill:none;stroke:#000000;stroke-width:1.5;"/>
    <path clip-path="url(#p634fd5dd2c)" d="M 361.636364 159.211347 
L 361.636364 80.569166 
" style="fill:none;stroke:#000000;stroke-width:1.5;"/>
    <path clip-path="url(#p634fd5dd2c)" d="M 381.927273 159.211347 
L 381.927273 80.997962 
" style="fill:none;stroke:#000000;stroke-width:1.5;"/>
    <path clip-path="url(#p634fd5dd2c)" d="M 402.218182 159.211347 
L 402.218182 81.244144 
" style="fill:none;stroke:#000000;stroke-width:1.5;"/>
    <path clip-path="url(#p634fd5dd2c)" d="M 422.509091 159.211347 
L 422.509091 81.579026 
" style="fill:none;stroke:#000000;stroke-width:1.5;"/>
    <path clip-path="url(#p634fd5dd2c)" d="M 442.8 159.211347 
L 442.8 82.157357 
" style="fill:none;stroke:#000000;stroke-width:1.5;"/>
    <path clip-path="url(#p634fd5dd2c)" d="M 463.090909 159.211347 
L 463.090909 82.803241 
" style="fill:none;stroke:#000000;stroke-width:1.5;"/>
    <path clip-path="url(#p634fd5dd2c)" d="M 483.381818 159.211347 
L 483.381818 83.145217 
" style="fill:none;stroke:#000000;stroke-width:1.5;"/>
    <path clip-path="url(#p634fd5dd2c)" d="M 503.672727 159.211347 
L 503.672727 83.391227 
" style="fill:none;stroke:#000000;stroke-width:1.5;"/>
    <path clip-path="url(#p634fd5dd2c)" d="M 523.963636 159.211347 
L 523.963636 83.844263 
" style="fill:none;stroke:#000000;stroke-width:1.5;"/>
    <path clip-path="url(#p634fd5dd2c)" d="M 544.254545 159.211347 
L 544.254545 84.4609 
" style="fill:none;stroke:#000000;stroke-width:1.5;"/>
    <path clip-path="url(#p634fd5dd2c)" d="M 564.545455 159.211347 
L 564.545455 84.835074 
" style="fill:none;stroke:#000000;stroke-width:1.5;"/>
    <path clip-path="url(#p634fd5dd2c)" d="M 584.836364 159.211347 
L 584.836364 84.911895 
" style="fill:none;stroke:#000000;stroke-width:1.5;"/>
    <path clip-path="url(#p634fd5dd2c)" d="M 605.127273 159.211347 
L 605.127273 85.146087 
" style="fill:none;stroke:#000000;stroke-width:1.5;"/>
    <path clip-path="url(#p634fd5dd2c)" d="M 625.418182 159.211347 
L 625.418182 85.781908 
" style="fill:none;stroke:#000000;stroke-width:1.5;"/>
    <path clip-path="url(#p634fd5dd2c)" d="M 645.709091 159.211347 
L 645.709091 86.637153 
" style="fill:none;stroke:#000000;stroke-width:1.5;"/>
    <path clip-path="url(#p634fd5dd2c)" d="M 666 159.211347 
L 666 87.380216 
" style="fill:none;stroke:#000000;stroke-width:1.5;"/>
    <path clip-path="url(#p634fd5dd2c)" d="M 686.290909 159.211347 
L 686.290909 87.774865 
" style="fill:none;stroke:#000000;stroke-width:1.5;"/>
    <path clip-path="url(#p634fd5dd2c)" d="M 706.581818 159.211347 
L 706.581818 88.332684 
" style="fill:none;stroke:#000000;stroke-width:1.5;"/>
    <path clip-path="url(#p634fd5dd2c)" d="M 726.872727 159.211347 
L 726.872727 89.134022 
" style="fill:none;stroke:#000000;stroke-width:1.5;"/>
    <path clip-path="url(#p634fd5dd2c)" d="M 747.163636 159.211347 
L 747.163636 90.02472 
" style="fill:none;stroke:#000000;stroke-width:1.5;"/>
   </g>
   <g id="line2d_14">
    <path clip-path="url(#p634fd5dd2c)" d="M 108 159.211347 
L 777.6 159.211347 
" style="fill:none;stroke:#ffa500;stroke-linecap:square;stroke-width:1.5;"/>
   </g>
   <g id="line2d_15">
    <defs>
     <path d="M 0 2.5 
C 0.663008 2.5 1.29895 2.236584 1.767767 1.767767 
C 2.236584 1.29895 2.5 0.663008 2.5 0 
C 2.5 -0.663008 2.236584 -1.29895 1.767767 -1.767767 
C 1.29895 -2.236584 0.663008 -2.5 0 -2.5 
C -0.663008 -2.5 -1.29895 -2.236584 -1.767767 -1.767767 
C -2.236584 -1.29895 -2.5 -0.663008 -2.5 0 
C -2.5 0.663008 -2.236584 1.29895 -1.767767 1.767767 
C -1.29895 2.236584 -0.663008 2.5 0 2.5 
z
" id="mbbaec6f676" style="stroke:#ffa500;"/>
    </defs>
    <g clip-path="url(#p634fd5dd2c)">
     <use style="fill:#ffa500;stroke:#ffa500;" x="138.436364" xlink:href="#mbbaec6f676" y="58.578843"/>
     <use style="fill:#ffa500;stroke:#ffa500;" x="158.727273" xlink:href="#mbbaec6f676" y="62.213246"/>
     <use style="fill:#ffa500;stroke:#ffa500;" x="179.018182" xlink:href="#mbbaec6f676" y="66.705822"/>
     <use style="fill:#ffa500;stroke:#ffa500;" x="199.309091" xlink:href="#mbbaec6f676" y="69.754453"/>
     <use style="fill:#ffa500;stroke:#ffa500;" x="219.6" xlink:href="#mbbaec6f676" y="71.957689"/>
     <use style="fill:#ffa500;stroke:#ffa500;" x="239.890909" xlink:href="#mbbaec6f676" y="73.82012"/>
     <use style="fill:#ffa500;stroke:#ffa500;" x="260.181818" xlink:href="#mbbaec6f676" y="75.532731"/>
     <use style="fill:#ffa500;stroke:#ffa500;" x="280.472727" xlink:href="#mbbaec6f676" y="76.883783"/>
     <use style="fill:#ffa500;stroke:#ffa500;" x="300.763636" xlink:href="#mbbaec6f676" y="77.957201"/>
     <use style="fill:#ffa500;stroke:#ffa500;" x="321.054545" xlink:href="#mbbaec6f676" y="78.930633"/>
     <use style="fill:#ffa500;stroke:#ffa500;" x="341.345455" xlink:href="#mbbaec6f676" y="79.918679"/>
     <use style="fill:#ffa500;stroke:#ffa500;" x="361.636364" xlink:href="#mbbaec6f676" y="80.569166"/>
     <use style="fill:#ffa500;stroke:#ffa500;" x="381.927273" xlink:href="#mbbaec6f676" y="80.997962"/>
     <use style="fill:#ffa500;stroke:#ffa500;" x="402.218182" xlink:href="#mbbaec6f676" y="81.244144"/>
     <use style="fill:#ffa500;stroke:#ffa500;" x="422.509091" xlink:href="#mbbaec6f676" y="81.579026"/>
     <use style="fill:#ffa500;stroke:#ffa500;" x="442.8" xlink:href="#mbbaec6f676" y="82.157357"/>
     <use style="fill:#ffa500;stroke:#ffa500;" x="463.090909" xlink:href="#mbbaec6f676" y="82.803241"/>
     <use style="fill:#ffa500;stroke:#ffa500;" x="483.381818" xlink:href="#mbbaec6f676" y="83.145217"/>
     <use style="fill:#ffa500;stroke:#ffa500;" x="503.672727" xlink:href="#mbbaec6f676" y="83.391227"/>
     <use style="fill:#ffa500;stroke:#ffa500;" x="523.963636" xlink:href="#mbbaec6f676" y="83.844263"/>
     <use style="fill:#ffa500;stroke:#ffa500;" x="544.254545" xlink:href="#mbbaec6f676" y="84.4609"/>
     <use style="fill:#ffa500;stroke:#ffa500;" x="564.545455" xlink:href="#mbbaec6f676" y="84.835074"/>
     <use style="fill:#ffa500;stroke:#ffa500;" x="584.836364" xlink:href="#mbbaec6f676" y="84.911895"/>
     <use style="fill:#ffa500;stroke:#ffa500;" x="605.127273" xlink:href="#mbbaec6f676" y="85.146087"/>
     <use style="fill:#ffa500;stroke:#ffa500;" x="625.418182" xlink:href="#mbbaec6f676" y="85.781908"/>
     <use style="fill:#ffa500;stroke:#ffa500;" x="645.709091" xlink:href="#mbbaec6f676" y="86.637153"/>
     <use style="fill:#ffa500;stroke:#ffa500;" x="666" xlink:href="#mbbaec6f676" y="87.380216"/>
     <use style="fill:#ffa500;stroke:#ffa500;" x="686.290909" xlink:href="#mbbaec6f676" y="87.774865"/>
     <use style="fill:#ffa500;stroke:#ffa500;" x="706.581818" xlink:href="#mbbaec6f676" y="88.332684"/>
     <use style="fill:#ffa500;stroke:#ffa500;" x="726.872727" xlink:href="#mbbaec6f676" y="89.134022"/>
     <use style="fill:#ffa500;stroke:#ffa500;" x="747.163636" xlink:href="#mbbaec6f676" y="90.02472"/>
    </g>
   </g>
   <g id="patch_3">
    <path d="M 108 200.094545 
L 108 51.84 
" style="fill:none;stroke:#000000;stroke-linecap:square;stroke-linejoin:miter;stroke-width:0.8;"/>
   </g>
   <g id="patch_4">
    <path d="M 777.6 200.094545 
L 777.6 51.84 
" style="fill:none;stroke:#000000;stroke-linecap:square;stroke-linejoin:miter;stroke-width:0.8;"/>
   </g>
   <g id="patch_5">
    <path d="M 108 200.094545 
L 777.6 200.094545 
" style="fill:none;stroke:#000000;stroke-linecap:square;stroke-linejoin:miter;stroke-width:0.8;"/>
   </g>
   <g id="patch_6">
    <path d="M 108 51.84 
L 777.6 51.84 
" style="fill:none;stroke:#000000;stroke-linecap:square;stroke-linejoin:miter;stroke-width:0.8;"/>
   </g>
   <g id="text_14">
    <!-- Autocorrelation -->
    <defs>
     <path d="M 34.1875 63.1875 
L 20.796875 26.90625 
L 47.609375 26.90625 
z
M 28.609375 72.90625 
L 39.796875 72.90625 
L 67.578125 0 
L 57.328125 0 
L 50.6875 18.703125 
L 17.828125 18.703125 
L 11.1875 0 
L 0.78125 0 
z
" id="DejaVuSans-65"/>
     <path d="M 8.5 21.578125 
L 8.5 54.6875 
L 17.484375 54.6875 
L 17.484375 21.921875 
Q 17.484375 14.15625 20.5 10.265625 
Q 23.53125 6.390625 29.59375 6.390625 
Q 36.859375 6.390625 41.078125 11.03125 
Q 45.3125 15.671875 45.3125 23.6875 
L 45.3125 54.6875 
L 54.296875 54.6875 
L 54.296875 0 
L 45.3125 0 
L 45.3125 8.40625 
Q 42.046875 3.421875 37.71875 1 
Q 33.40625 -1.421875 27.6875 -1.421875 
Q 18.265625 -1.421875 13.375 4.4375 
Q 8.5 10.296875 8.5 21.578125 
z
M 31.109375 56 
z
" id="DejaVuSans-117"/>
     <path d="M 18.3125 70.21875 
L 18.3125 54.6875 
L 36.8125 54.6875 
L 36.8125 47.703125 
L 18.3125 47.703125 
L 18.3125 18.015625 
Q 18.3125 11.328125 20.140625 9.421875 
Q 21.96875 7.515625 27.59375 7.515625 
L 36.8125 7.515625 
L 36.8125 0 
L 27.59375 0 
Q 17.1875 0 13.234375 3.875 
Q 9.28125 7.765625 9.28125 18.015625 
L 9.28125 47.703125 
L 2.6875 47.703125 
L 2.6875 54.6875 
L 9.28125 54.6875 
L 9.28125 70.21875 
z
" id="DejaVuSans-116"/>
     <path d="M 30.609375 48.390625 
Q 23.390625 48.390625 19.1875 42.75 
Q 14.984375 37.109375 14.984375 27.296875 
Q 14.984375 17.484375 19.15625 11.84375 
Q 23.34375 6.203125 30.609375 6.203125 
Q 37.796875 6.203125 41.984375 11.859375 
Q 46.1875 17.53125 46.1875 27.296875 
Q 46.1875 37.015625 41.984375 42.703125 
Q 37.796875 48.390625 30.609375 48.390625 
z
M 30.609375 56 
Q 42.328125 56 49.015625 48.375 
Q 55.71875 40.765625 55.71875 27.296875 
Q 55.71875 13.875 49.015625 6.21875 
Q 42.328125 -1.421875 30.609375 -1.421875 
Q 18.84375 -1.421875 12.171875 6.21875 
Q 5.515625 13.875 5.515625 27.296875 
Q 5.515625 40.765625 12.171875 48.375 
Q 18.84375 56 30.609375 56 
z
" id="DejaVuSans-111"/>
     <path d="M 48.78125 52.59375 
L 48.78125 44.1875 
Q 44.96875 46.296875 41.140625 47.34375 
Q 37.3125 48.390625 33.40625 48.390625 
Q 24.65625 48.390625 19.8125 42.84375 
Q 14.984375 37.3125 14.984375 27.296875 
Q 14.984375 17.28125 19.8125 11.734375 
Q 24.65625 6.203125 33.40625 6.203125 
Q 37.3125 6.203125 41.140625 7.25 
Q 44.96875 8.296875 48.78125 10.40625 
L 48.78125 2.09375 
Q 45.015625 0.34375 40.984375 -0.53125 
Q 36.96875 -1.421875 32.421875 -1.421875 
Q 20.0625 -1.421875 12.78125 6.34375 
Q 5.515625 14.109375 5.515625 27.296875 
Q 5.515625 40.671875 12.859375 48.328125 
Q 20.21875 56 33.015625 56 
Q 37.15625 56 41.109375 55.140625 
Q 45.0625 54.296875 48.78125 52.59375 
z
" id="DejaVuSans-99"/>
     <path d="M 41.109375 46.296875 
Q 39.59375 47.171875 37.8125 47.578125 
Q 36.03125 48 33.890625 48 
Q 26.265625 48 22.1875 43.046875 
Q 18.109375 38.09375 18.109375 28.8125 
L 18.109375 0 
L 9.078125 0 
L 9.078125 54.6875 
L 18.109375 54.6875 
L 18.109375 46.1875 
Q 20.953125 51.171875 25.484375 53.578125 
Q 30.03125 56 36.53125 56 
Q 37.453125 56 38.578125 55.875 
Q 39.703125 55.765625 41.0625 55.515625 
z
" id="DejaVuSans-114"/>
     <path d="M 56.203125 29.59375 
L 56.203125 25.203125 
L 14.890625 25.203125 
Q 15.484375 15.921875 20.484375 11.0625 
Q 25.484375 6.203125 34.421875 6.203125 
Q 39.59375 6.203125 44.453125 7.46875 
Q 49.3125 8.734375 54.109375 11.28125 
L 54.109375 2.78125 
Q 49.265625 0.734375 44.1875 -0.34375 
Q 39.109375 -1.421875 33.890625 -1.421875 
Q 20.796875 -1.421875 13.15625 6.1875 
Q 5.515625 13.8125 5.515625 26.8125 
Q 5.515625 40.234375 12.765625 48.109375 
Q 20.015625 56 32.328125 56 
Q 43.359375 56 49.78125 48.890625 
Q 56.203125 41.796875 56.203125 29.59375 
z
M 47.21875 32.234375 
Q 47.125 39.59375 43.09375 43.984375 
Q 39.0625 48.390625 32.421875 48.390625 
Q 24.90625 48.390625 20.390625 44.140625 
Q 15.875 39.890625 15.1875 32.171875 
z
" id="DejaVuSans-101"/>
     <path d="M 9.421875 75.984375 
L 18.40625 75.984375 
L 18.40625 0 
L 9.421875 0 
z
" id="DejaVuSans-108"/>
     <path d="M 34.28125 27.484375 
Q 23.390625 27.484375 19.1875 25 
Q 14.984375 22.515625 14.984375 16.5 
Q 14.984375 11.71875 18.140625 8.90625 
Q 21.296875 6.109375 26.703125 6.109375 
Q 34.1875 6.109375 38.703125 11.40625 
Q 43.21875 16.703125 43.21875 25.484375 
L 43.21875 27.484375 
z
M 52.203125 31.203125 
L 52.203125 0 
L 43.21875 0 
L 43.21875 8.296875 
Q 40.140625 3.328125 35.546875 0.953125 
Q 30.953125 -1.421875 24.3125 -1.421875 
Q 15.921875 -1.421875 10.953125 3.296875 
Q 6 8.015625 6 15.921875 
Q 6 25.140625 12.171875 29.828125 
Q 18.359375 34.515625 30.609375 34.515625 
L 43.21875 34.515625 
L 43.21875 35.40625 
Q 43.21875 41.609375 39.140625 45 
Q 35.0625 48.390625 27.6875 48.390625 
Q 23 48.390625 18.546875 47.265625 
Q 14.109375 46.140625 10.015625 43.890625 
L 10.015625 52.203125 
Q 14.9375 54.109375 19.578125 55.046875 
Q 24.21875 56 28.609375 56 
Q 40.484375 56 46.34375 49.84375 
Q 52.203125 43.703125 52.203125 31.203125 
z
" id="DejaVuSans-97"/>
     <path d="M 9.421875 54.6875 
L 18.40625 54.6875 
L 18.40625 0 
L 9.421875 0 
z
M 9.421875 75.984375 
L 18.40625 75.984375 
L 18.40625 64.59375 
L 9.421875 64.59375 
z
" id="DejaVuSans-105"/>
     <path d="M 54.890625 33.015625 
L 54.890625 0 
L 45.90625 0 
L 45.90625 32.71875 
Q 45.90625 40.484375 42.875 44.328125 
Q 39.84375 48.1875 33.796875 48.1875 
Q 26.515625 48.1875 22.3125 43.546875 
Q 18.109375 38.921875 18.109375 30.90625 
L 18.109375 0 
L 9.078125 0 
L 9.078125 54.6875 
L 18.109375 54.6875 
L 18.109375 46.1875 
Q 21.34375 51.125 25.703125 53.5625 
Q 30.078125 56 35.796875 56 
Q 45.21875 56 50.046875 50.171875 
Q 54.890625 44.34375 54.890625 33.015625 
z
" id="DejaVuSans-110"/>
    </defs>
    <g transform="translate(396.440625 45.84)scale(0.12 -0.12)">
     <use xlink:href="#DejaVuSans-65"/>
     <use x="68.408203" xlink:href="#DejaVuSans-117"/>
     <use x="131.787109" xlink:href="#DejaVuSans-116"/>
     <use x="170.996094" xlink:href="#DejaVuSans-111"/>
     <use x="232.177734" xlink:href="#DejaVuSans-99"/>
     <use x="287.158203" xlink:href="#DejaVuSans-111"/>
     <use x="348.339844" xlink:href="#DejaVuSans-114"/>
     <use x="389.4375" xlink:href="#DejaVuSans-114"/>
     <use x="430.519531" xlink:href="#DejaVuSans-101"/>
     <use x="492.042969" xlink:href="#DejaVuSans-108"/>
     <use x="519.826172" xlink:href="#DejaVuSans-97"/>
     <use x="581.105469" xlink:href="#DejaVuSans-116"/>
     <use x="620.314453" xlink:href="#DejaVuSans-105"/>
     <use x="648.097656" xlink:href="#DejaVuSans-111"/>
     <use x="709.279297" xlink:href="#DejaVuSans-110"/>
    </g>
   </g>
  </g>
  <g id="axes_2">
   <g id="patch_7">
    <path d="M 108 378 
L 777.6 378 
L 777.6 229.745455 
L 108 229.745455 
z
" style="fill:#ffffff;"/>
   </g>
   <g id="PolyCollection_2">
    <path clip-path="url(#p3ef40db627)" d="M 158.727273 347.89651 
L 158.727273 361.13183 
L 179.018182 361.13183 
L 199.309091 361.13183 
L 219.6 361.13183 
L 239.890909 361.13183 
L 260.181818 361.13183 
L 280.472727 361.13183 
L 300.763636 361.13183 
L 321.054545 361.13183 
L 341.345455 361.13183 
L 361.636364 361.13183 
L 381.927273 361.13183 
L 402.218182 361.13183 
L 422.509091 361.13183 
L 442.8 361.13183 
L 463.090909 361.13183 
L 483.381818 361.13183 
L 503.672727 361.13183 
L 523.963636 361.13183 
L 544.254545 361.13183 
L 564.545455 361.13183 
L 584.836364 361.13183 
L 605.127273 361.13183 
L 625.418182 361.13183 
L 645.709091 361.13183 
L 666 361.13183 
L 686.290909 361.13183 
L 706.581818 361.13183 
L 726.872727 361.13183 
L 747.163636 361.13183 
L 747.163636 347.89651 
L 747.163636 347.89651 
L 726.872727 347.89651 
L 706.581818 347.89651 
L 686.290909 347.89651 
L 666 347.89651 
L 645.709091 347.89651 
L 625.418182 347.89651 
L 605.127273 347.89651 
L 584.836364 347.89651 
L 564.545455 347.89651 
L 544.254545 347.89651 
L 523.963636 347.89651 
L 503.672727 347.89651 
L 483.381818 347.89651 
L 463.090909 347.89651 
L 442.8 347.89651 
L 422.509091 347.89651 
L 402.218182 347.89651 
L 381.927273 347.89651 
L 361.636364 347.89651 
L 341.345455 347.89651 
L 321.054545 347.89651 
L 300.763636 347.89651 
L 280.472727 347.89651 
L 260.181818 347.89651 
L 239.890909 347.89651 
L 219.6 347.89651 
L 199.309091 347.89651 
L 179.018182 347.89651 
L 158.727273 347.89651 
z
" style="fill:#1f77b4;fill-opacity:0.25;"/>
   </g>
   <g id="matplotlib.axis_3">
    <g id="xtick_8">
     <g id="line2d_16">
      <g>
       <use style="stroke:#000000;stroke-width:0.8;" x="138.436364" xlink:href="#m09aedc2767" y="378"/>
      </g>
     </g>
     <g id="text_15">
      <!-- 0 -->
      <g transform="translate(135.255114 392.598437)scale(0.1 -0.1)">
       <use xlink:href="#DejaVuSans-48"/>
      </g>
     </g>
    </g>
    <g id="xtick_9">
     <g id="line2d_17">
      <g>
       <use style="stroke:#000000;stroke-width:0.8;" x="239.890909" xlink:href="#m09aedc2767" y="378"/>
      </g>
     </g>
     <g id="text_16">
      <!-- 5 -->
      <g transform="translate(236.709659 392.598437)scale(0.1 -0.1)">
       <use xlink:href="#DejaVuSans-53"/>
      </g>
     </g>
    </g>
    <g id="xtick_10">
     <g id="line2d_18">
      <g>
       <use style="stroke:#000000;stroke-width:0.8;" x="341.345455" xlink:href="#m09aedc2767" y="378"/>
      </g>
     </g>
     <g id="text_17">
      <!-- 10 -->
      <g transform="translate(334.982955 392.598437)scale(0.1 -0.1)">
       <use xlink:href="#DejaVuSans-49"/>
       <use x="63.623047" xlink:href="#DejaVuSans-48"/>
      </g>
     </g>
    </g>
    <g id="xtick_11">
     <g id="line2d_19">
      <g>
       <use style="stroke:#000000;stroke-width:0.8;" x="442.8" xlink:href="#m09aedc2767" y="378"/>
      </g>
     </g>
     <g id="text_18">
      <!-- 15 -->
      <g transform="translate(436.4375 392.598437)scale(0.1 -0.1)">
       <use xlink:href="#DejaVuSans-49"/>
       <use x="63.623047" xlink:href="#DejaVuSans-53"/>
      </g>
     </g>
    </g>
    <g id="xtick_12">
     <g id="line2d_20">
      <g>
       <use style="stroke:#000000;stroke-width:0.8;" x="544.254545" xlink:href="#m09aedc2767" y="378"/>
      </g>
     </g>
     <g id="text_19">
      <!-- 20 -->
      <g transform="translate(537.892045 392.598437)scale(0.1 -0.1)">
       <use xlink:href="#DejaVuSans-50"/>
       <use x="63.623047" xlink:href="#DejaVuSans-48"/>
      </g>
     </g>
    </g>
    <g id="xtick_13">
     <g id="line2d_21">
      <g>
       <use style="stroke:#000000;stroke-width:0.8;" x="645.709091" xlink:href="#m09aedc2767" y="378"/>
      </g>
     </g>
     <g id="text_20">
      <!-- 25 -->
      <g transform="translate(639.346591 392.598437)scale(0.1 -0.1)">
       <use xlink:href="#DejaVuSans-50"/>
       <use x="63.623047" xlink:href="#DejaVuSans-53"/>
      </g>
     </g>
    </g>
    <g id="xtick_14">
     <g id="line2d_22">
      <g>
       <use style="stroke:#000000;stroke-width:0.8;" x="747.163636" xlink:href="#m09aedc2767" y="378"/>
      </g>
     </g>
     <g id="text_21">
      <!-- 30 -->
      <g transform="translate(740.801136 392.598437)scale(0.1 -0.1)">
       <use xlink:href="#DejaVuSans-51"/>
       <use x="63.623047" xlink:href="#DejaVuSans-48"/>
      </g>
     </g>
    </g>
   </g>
   <g id="matplotlib.axis_4">
    <g id="ytick_7">
     <g id="line2d_23">
      <g>
       <use style="stroke:#000000;stroke-width:0.8;" x="108" xlink:href="#m1244c6a74b" y="378.120145"/>
      </g>
     </g>
     <g id="text_22">
      <!-- −0.2 -->
      <g transform="translate(76.717187 381.919363)scale(0.1 -0.1)">
       <use xlink:href="#DejaVuSans-8722"/>
       <use x="83.789062" xlink:href="#DejaVuSans-48"/>
       <use x="147.412109" xlink:href="#DejaVuSans-46"/>
       <use x="179.199219" xlink:href="#DejaVuSans-50"/>
      </g>
     </g>
    </g>
    <g id="ytick_8">
     <g id="line2d_24">
      <g>
       <use style="stroke:#000000;stroke-width:0.8;" x="108" xlink:href="#m1244c6a74b" y="354.51417"/>
      </g>
     </g>
     <g id="text_23">
      <!-- 0.0 -->
      <g transform="translate(85.096875 358.313389)scale(0.1 -0.1)">
       <use xlink:href="#DejaVuSans-48"/>
       <use x="63.623047" xlink:href="#DejaVuSans-46"/>
       <use x="95.410156" xlink:href="#DejaVuSans-48"/>
      </g>
     </g>
    </g>
    <g id="ytick_9">
     <g id="line2d_25">
      <g>
       <use style="stroke:#000000;stroke-width:0.8;" x="108" xlink:href="#m1244c6a74b" y="330.908196"/>
      </g>
     </g>
     <g id="text_24">
      <!-- 0.2 -->
      <g transform="translate(85.096875 334.707414)scale(0.1 -0.1)">
       <use xlink:href="#DejaVuSans-48"/>
       <use x="63.623047" xlink:href="#DejaVuSans-46"/>
       <use x="95.410156" xlink:href="#DejaVuSans-50"/>
      </g>
     </g>
    </g>
    <g id="ytick_10">
     <g id="line2d_26">
      <g>
       <use style="stroke:#000000;stroke-width:0.8;" x="108" xlink:href="#m1244c6a74b" y="307.302221"/>
      </g>
     </g>
     <g id="text_25">
      <!-- 0.4 -->
      <defs>
       <path d="M 37.796875 64.3125 
L 12.890625 25.390625 
L 37.796875 25.390625 
z
M 35.203125 72.90625 
L 47.609375 72.90625 
L 47.609375 25.390625 
L 58.015625 25.390625 
L 58.015625 17.1875 
L 47.609375 17.1875 
L 47.609375 0 
L 37.796875 0 
L 37.796875 17.1875 
L 4.890625 17.1875 
L 4.890625 26.703125 
z
" id="DejaVuSans-52"/>
      </defs>
      <g transform="translate(85.096875 311.10144)scale(0.1 -0.1)">
       <use xlink:href="#DejaVuSans-48"/>
       <use x="63.623047" xlink:href="#DejaVuSans-46"/>
       <use x="95.410156" xlink:href="#DejaVuSans-52"/>
      </g>
     </g>
    </g>
    <g id="ytick_11">
     <g id="line2d_27">
      <g>
       <use style="stroke:#000000;stroke-width:0.8;" x="108" xlink:href="#m1244c6a74b" y="283.696247"/>
      </g>
     </g>
     <g id="text_26">
      <!-- 0.6 -->
      <defs>
       <path d="M 33.015625 40.375 
Q 26.375 40.375 22.484375 35.828125 
Q 18.609375 31.296875 18.609375 23.390625 
Q 18.609375 15.53125 22.484375 10.953125 
Q 26.375 6.390625 33.015625 6.390625 
Q 39.65625 6.390625 43.53125 10.953125 
Q 47.40625 15.53125 47.40625 23.390625 
Q 47.40625 31.296875 43.53125 35.828125 
Q 39.65625 40.375 33.015625 40.375 
z
M 52.59375 71.296875 
L 52.59375 62.3125 
Q 48.875 64.0625 45.09375 64.984375 
Q 41.3125 65.921875 37.59375 65.921875 
Q 27.828125 65.921875 22.671875 59.328125 
Q 17.53125 52.734375 16.796875 39.40625 
Q 19.671875 43.65625 24.015625 45.921875 
Q 28.375 48.1875 33.59375 48.1875 
Q 44.578125 48.1875 50.953125 41.515625 
Q 57.328125 34.859375 57.328125 23.390625 
Q 57.328125 12.15625 50.6875 5.359375 
Q 44.046875 -1.421875 33.015625 -1.421875 
Q 20.359375 -1.421875 13.671875 8.265625 
Q 6.984375 17.96875 6.984375 36.375 
Q 6.984375 53.65625 15.1875 63.9375 
Q 23.390625 74.21875 37.203125 74.21875 
Q 40.921875 74.21875 44.703125 73.484375 
Q 48.484375 72.75 52.59375 71.296875 
z
" id="DejaVuSans-54"/>
      </defs>
      <g transform="translate(85.096875 287.495465)scale(0.1 -0.1)">
       <use xlink:href="#DejaVuSans-48"/>
       <use x="63.623047" xlink:href="#DejaVuSans-46"/>
       <use x="95.410156" xlink:href="#DejaVuSans-54"/>
      </g>
     </g>
    </g>
    <g id="ytick_12">
     <g id="line2d_28">
      <g>
       <use style="stroke:#000000;stroke-width:0.8;" x="108" xlink:href="#m1244c6a74b" y="260.090272"/>
      </g>
     </g>
     <g id="text_27">
      <!-- 0.8 -->
      <defs>
       <path d="M 31.78125 34.625 
Q 24.75 34.625 20.71875 30.859375 
Q 16.703125 27.09375 16.703125 20.515625 
Q 16.703125 13.921875 20.71875 10.15625 
Q 24.75 6.390625 31.78125 6.390625 
Q 38.8125 6.390625 42.859375 10.171875 
Q 46.921875 13.96875 46.921875 20.515625 
Q 46.921875 27.09375 42.890625 30.859375 
Q 38.875 34.625 31.78125 34.625 
z
M 21.921875 38.8125 
Q 15.578125 40.375 12.03125 44.71875 
Q 8.5 49.078125 8.5 55.328125 
Q 8.5 64.0625 14.71875 69.140625 
Q 20.953125 74.21875 31.78125 74.21875 
Q 42.671875 74.21875 48.875 69.140625 
Q 55.078125 64.0625 55.078125 55.328125 
Q 55.078125 49.078125 51.53125 44.71875 
Q 48 40.375 41.703125 38.8125 
Q 48.828125 37.15625 52.796875 32.3125 
Q 56.78125 27.484375 56.78125 20.515625 
Q 56.78125 9.90625 50.3125 4.234375 
Q 43.84375 -1.421875 31.78125 -1.421875 
Q 19.734375 -1.421875 13.25 4.234375 
Q 6.78125 9.90625 6.78125 20.515625 
Q 6.78125 27.484375 10.78125 32.3125 
Q 14.796875 37.15625 21.921875 38.8125 
z
M 18.3125 54.390625 
Q 18.3125 48.734375 21.84375 45.5625 
Q 25.390625 42.390625 31.78125 42.390625 
Q 38.140625 42.390625 41.71875 45.5625 
Q 45.3125 48.734375 45.3125 54.390625 
Q 45.3125 60.0625 41.71875 63.234375 
Q 38.140625 66.40625 31.78125 66.40625 
Q 25.390625 66.40625 21.84375 63.234375 
Q 18.3125 60.0625 18.3125 54.390625 
z
" id="DejaVuSans-56"/>
      </defs>
      <g transform="translate(85.096875 263.889491)scale(0.1 -0.1)">
       <use xlink:href="#DejaVuSans-48"/>
       <use x="63.623047" xlink:href="#DejaVuSans-46"/>
       <use x="95.410156" xlink:href="#DejaVuSans-56"/>
      </g>
     </g>
    </g>
    <g id="ytick_13">
     <g id="line2d_29">
      <g>
       <use style="stroke:#000000;stroke-width:0.8;" x="108" xlink:href="#m1244c6a74b" y="236.484298"/>
      </g>
     </g>
     <g id="text_28">
      <!-- 1.0 -->
      <g transform="translate(85.096875 240.283516)scale(0.1 -0.1)">
       <use xlink:href="#DejaVuSans-49"/>
       <use x="63.623047" xlink:href="#DejaVuSans-46"/>
       <use x="95.410156" xlink:href="#DejaVuSans-48"/>
      </g>
     </g>
    </g>
   </g>
   <g id="LineCollection_2">
    <path clip-path="url(#p3ef40db627)" d="M 138.436364 354.51417 
L 138.436364 236.484298 
" style="fill:none;stroke:#000000;stroke-width:1.5;"/>
    <path clip-path="url(#p3ef40db627)" d="M 158.727273 354.51417 
L 158.727273 240.653841 
" style="fill:none;stroke:#000000;stroke-width:1.5;"/>
    <path clip-path="url(#p3ef40db627)" d="M 179.018182 354.51417 
L 179.018182 371.261157 
" style="fill:none;stroke:#000000;stroke-width:1.5;"/>
    <path clip-path="url(#p3ef40db627)" d="M 199.309091 354.51417 
L 199.309091 330.632583 
" style="fill:none;stroke:#000000;stroke-width:1.5;"/>
    <path clip-path="url(#p3ef40db627)" d="M 219.6 354.51417 
L 219.6 348.42996 
" style="fill:none;stroke:#000000;stroke-width:1.5;"/>
    <path clip-path="url(#p3ef40db627)" d="M 239.890909 354.51417 
L 239.890909 347.593499 
" style="fill:none;stroke:#000000;stroke-width:1.5;"/>
    <path clip-path="url(#p3ef40db627)" d="M 260.181818 354.51417 
L 260.181818 350.241117 
" style="fill:none;stroke:#000000;stroke-width:1.5;"/>
    <path clip-path="url(#p3ef40db627)" d="M 280.472727 354.51417 
L 280.472727 346.22261 
" style="fill:none;stroke:#000000;stroke-width:1.5;"/>
    <path clip-path="url(#p3ef40db627)" d="M 300.763636 354.51417 
L 300.763636 349.30429 
" style="fill:none;stroke:#000000;stroke-width:1.5;"/>
    <path clip-path="url(#p3ef40db627)" d="M 321.054545 354.51417 
L 321.054545 350.14166 
" style="fill:none;stroke:#000000;stroke-width:1.5;"/>
    <path clip-path="url(#p3ef40db627)" d="M 341.345455 354.51417 
L 341.345455 351.794892 
" style="fill:none;stroke:#000000;stroke-width:1.5;"/>
    <path clip-path="url(#p3ef40db627)" d="M 361.636364 354.51417 
L 361.636364 345.549068 
" style="fill:none;stroke:#000000;stroke-width:1.5;"/>
    <path clip-path="url(#p3ef40db627)" d="M 381.927273 354.51417 
L 381.927273 350.022882 
" style="fill:none;stroke:#000000;stroke-width:1.5;"/>
    <path clip-path="url(#p3ef40db627)" d="M 402.218182 354.51417 
L 402.218182 347.146516 
" style="fill:none;stroke:#000000;stroke-width:1.5;"/>
    <path clip-path="url(#p3ef40db627)" d="M 422.509091 354.51417 
L 422.509091 352.638232 
" style="fill:none;stroke:#000000;stroke-width:1.5;"/>
    <path clip-path="url(#p3ef40db627)" d="M 442.8 354.51417 
L 442.8 353.756018 
" style="fill:none;stroke:#000000;stroke-width:1.5;"/>
    <path clip-path="url(#p3ef40db627)" d="M 463.090909 354.51417 
L 463.090909 352.390661 
" style="fill:none;stroke:#000000;stroke-width:1.5;"/>
    <path clip-path="url(#p3ef40db627)" d="M 483.381818 354.51417 
L 483.381818 347.36936 
" style="fill:none;stroke:#000000;stroke-width:1.5;"/>
    <path clip-path="url(#p3ef40db627)" d="M 503.672727 354.51417 
L 503.672727 352.373252 
" style="fill:none;stroke:#000000;stroke-width:1.5;"/>
    <path clip-path="url(#p3ef40db627)" d="M 523.963636 354.51417 
L 523.963636 354.253332 
" style="fill:none;stroke:#000000;stroke-width:1.5;"/>
    <path clip-path="url(#p3ef40db627)" d="M 544.254545 354.51417 
L 544.254545 354.025199 
" style="fill:none;stroke:#000000;stroke-width:1.5;"/>
    <path clip-path="url(#p3ef40db627)" d="M 564.545455 354.51417 
L 564.545455 348.47247 
" style="fill:none;stroke:#000000;stroke-width:1.5;"/>
    <path clip-path="url(#p3ef40db627)" d="M 584.836364 354.51417 
L 584.836364 349.640479 
" style="fill:none;stroke:#000000;stroke-width:1.5;"/>
    <path clip-path="url(#p3ef40db627)" d="M 605.127273 354.51417 
L 605.127273 354.801107 
" style="fill:none;stroke:#000000;stroke-width:1.5;"/>
    <path clip-path="url(#p3ef40db627)" d="M 625.418182 354.51417 
L 625.418182 357.279904 
" style="fill:none;stroke:#000000;stroke-width:1.5;"/>
    <path clip-path="url(#p3ef40db627)" d="M 645.709091 354.51417 
L 645.709091 356.272463 
" style="fill:none;stroke:#000000;stroke-width:1.5;"/>
    <path clip-path="url(#p3ef40db627)" d="M 666 354.51417 
L 666 353.611144 
" style="fill:none;stroke:#000000;stroke-width:1.5;"/>
    <path clip-path="url(#p3ef40db627)" d="M 686.290909 354.51417 
L 686.290909 349.561782 
" style="fill:none;stroke:#000000;stroke-width:1.5;"/>
    <path clip-path="url(#p3ef40db627)" d="M 706.581818 354.51417 
L 706.581818 358.344329 
" style="fill:none;stroke:#000000;stroke-width:1.5;"/>
    <path clip-path="url(#p3ef40db627)" d="M 726.872727 354.51417 
L 726.872727 355.810329 
" style="fill:none;stroke:#000000;stroke-width:1.5;"/>
    <path clip-path="url(#p3ef40db627)" d="M 747.163636 354.51417 
L 747.163636 357.034237 
" style="fill:none;stroke:#000000;stroke-width:1.5;"/>
   </g>
   <g id="line2d_30">
    <path clip-path="url(#p3ef40db627)" d="M 108 354.51417 
L 777.6 354.51417 
" style="fill:none;stroke:#008000;stroke-linecap:square;stroke-width:1.5;"/>
   </g>
   <g id="line2d_31">
    <defs>
     <path d="M 0 2.5 
C 0.663008 2.5 1.29895 2.236584 1.767767 1.767767 
C 2.236584 1.29895 2.5 0.663008 2.5 0 
C 2.5 -0.663008 2.236584 -1.29895 1.767767 -1.767767 
C 1.29895 -2.236584 0.663008 -2.5 0 -2.5 
C -0.663008 -2.5 -1.29895 -2.236584 -1.767767 -1.767767 
C -2.236584 -1.29895 -2.5 -0.663008 -2.5 0 
C -2.5 0.663008 -2.236584 1.29895 -1.767767 1.767767 
C -1.29895 2.236584 -0.663008 2.5 0 2.5 
z
" id="mcbf05449db" style="stroke:#008000;"/>
    </defs>
    <g clip-path="url(#p3ef40db627)">
     <use style="fill:#008000;stroke:#008000;" x="138.436364" xlink:href="#mcbf05449db" y="236.484298"/>
     <use style="fill:#008000;stroke:#008000;" x="158.727273" xlink:href="#mcbf05449db" y="240.653841"/>
     <use style="fill:#008000;stroke:#008000;" x="179.018182" xlink:href="#mcbf05449db" y="371.261157"/>
     <use style="fill:#008000;stroke:#008000;" x="199.309091" xlink:href="#mcbf05449db" y="330.632583"/>
     <use style="fill:#008000;stroke:#008000;" x="219.6" xlink:href="#mcbf05449db" y="348.42996"/>
     <use style="fill:#008000;stroke:#008000;" x="239.890909" xlink:href="#mcbf05449db" y="347.593499"/>
     <use style="fill:#008000;stroke:#008000;" x="260.181818" xlink:href="#mcbf05449db" y="350.241117"/>
     <use style="fill:#008000;stroke:#008000;" x="280.472727" xlink:href="#mcbf05449db" y="346.22261"/>
     <use style="fill:#008000;stroke:#008000;" x="300.763636" xlink:href="#mcbf05449db" y="349.30429"/>
     <use style="fill:#008000;stroke:#008000;" x="321.054545" xlink:href="#mcbf05449db" y="350.14166"/>
     <use style="fill:#008000;stroke:#008000;" x="341.345455" xlink:href="#mcbf05449db" y="351.794892"/>
     <use style="fill:#008000;stroke:#008000;" x="361.636364" xlink:href="#mcbf05449db" y="345.549068"/>
     <use style="fill:#008000;stroke:#008000;" x="381.927273" xlink:href="#mcbf05449db" y="350.022882"/>
     <use style="fill:#008000;stroke:#008000;" x="402.218182" xlink:href="#mcbf05449db" y="347.146516"/>
     <use style="fill:#008000;stroke:#008000;" x="422.509091" xlink:href="#mcbf05449db" y="352.638232"/>
     <use style="fill:#008000;stroke:#008000;" x="442.8" xlink:href="#mcbf05449db" y="353.756018"/>
     <use style="fill:#008000;stroke:#008000;" x="463.090909" xlink:href="#mcbf05449db" y="352.390661"/>
     <use style="fill:#008000;stroke:#008000;" x="483.381818" xlink:href="#mcbf05449db" y="347.36936"/>
     <use style="fill:#008000;stroke:#008000;" x="503.672727" xlink:href="#mcbf05449db" y="352.373252"/>
     <use style="fill:#008000;stroke:#008000;" x="523.963636" xlink:href="#mcbf05449db" y="354.253332"/>
     <use style="fill:#008000;stroke:#008000;" x="544.254545" xlink:href="#mcbf05449db" y="354.025199"/>
     <use style="fill:#008000;stroke:#008000;" x="564.545455" xlink:href="#mcbf05449db" y="348.47247"/>
     <use style="fill:#008000;stroke:#008000;" x="584.836364" xlink:href="#mcbf05449db" y="349.640479"/>
     <use style="fill:#008000;stroke:#008000;" x="605.127273" xlink:href="#mcbf05449db" y="354.801107"/>
     <use style="fill:#008000;stroke:#008000;" x="625.418182" xlink:href="#mcbf05449db" y="357.279904"/>
     <use style="fill:#008000;stroke:#008000;" x="645.709091" xlink:href="#mcbf05449db" y="356.272463"/>
     <use style="fill:#008000;stroke:#008000;" x="666" xlink:href="#mcbf05449db" y="353.611144"/>
     <use style="fill:#008000;stroke:#008000;" x="686.290909" xlink:href="#mcbf05449db" y="349.561782"/>
     <use style="fill:#008000;stroke:#008000;" x="706.581818" xlink:href="#mcbf05449db" y="358.344329"/>
     <use style="fill:#008000;stroke:#008000;" x="726.872727" xlink:href="#mcbf05449db" y="355.810329"/>
     <use style="fill:#008000;stroke:#008000;" x="747.163636" xlink:href="#mcbf05449db" y="357.034237"/>
    </g>
   </g>
   <g id="patch_8">
    <path d="M 108 378 
L 108 229.745455 
" style="fill:none;stroke:#000000;stroke-linecap:square;stroke-linejoin:miter;stroke-width:0.8;"/>
   </g>
   <g id="patch_9">
    <path d="M 777.6 378 
L 777.6 229.745455 
" style="fill:none;stroke:#000000;stroke-linecap:square;stroke-linejoin:miter;stroke-width:0.8;"/>
   </g>
   <g id="patch_10">
    <path d="M 108 378 
L 777.6 378 
" style="fill:none;stroke:#000000;stroke-linecap:square;stroke-linejoin:miter;stroke-width:0.8;"/>
   </g>
   <g id="patch_11">
    <path d="M 108 229.745455 
L 777.6 229.745455 
" style="fill:none;stroke:#000000;stroke-linecap:square;stroke-linejoin:miter;stroke-width:0.8;"/>
   </g>
   <g id="text_29">
    <!-- Partial Autocorrelation -->
    <defs>
     <path d="M 19.671875 64.796875 
L 19.671875 37.40625 
L 32.078125 37.40625 
Q 38.96875 37.40625 42.71875 40.96875 
Q 46.484375 44.53125 46.484375 51.125 
Q 46.484375 57.671875 42.71875 61.234375 
Q 38.96875 64.796875 32.078125 64.796875 
z
M 9.8125 72.90625 
L 32.078125 72.90625 
Q 44.34375 72.90625 50.609375 67.359375 
Q 56.890625 61.8125 56.890625 51.125 
Q 56.890625 40.328125 50.609375 34.8125 
Q 44.34375 29.296875 32.078125 29.296875 
L 19.671875 29.296875 
L 19.671875 0 
L 9.8125 0 
z
" id="DejaVuSans-80"/>
     <path id="DejaVuSans-32"/>
    </defs>
    <g transform="translate(375.413437 223.745455)scale(0.12 -0.12)">
     <use xlink:href="#DejaVuSans-80"/>
     <use x="60.240234" xlink:href="#DejaVuSans-97"/>
     <use x="121.519531" xlink:href="#DejaVuSans-114"/>
     <use x="162.632812" xlink:href="#DejaVuSans-116"/>
     <use x="201.841797" xlink:href="#DejaVuSans-105"/>
     <use x="229.625" xlink:href="#DejaVuSans-97"/>
     <use x="290.904297" xlink:href="#DejaVuSans-108"/>
     <use x="318.6875" xlink:href="#DejaVuSans-32"/>
     <use x="350.474609" xlink:href="#DejaVuSans-65"/>
     <use x="418.882812" xlink:href="#DejaVuSans-117"/>
     <use x="482.261719" xlink:href="#DejaVuSans-116"/>
     <use x="521.470703" xlink:href="#DejaVuSans-111"/>
     <use x="582.652344" xlink:href="#DejaVuSans-99"/>
     <use x="637.632812" xlink:href="#DejaVuSans-111"/>
     <use x="698.814453" xlink:href="#DejaVuSans-114"/>
     <use x="739.912109" xlink:href="#DejaVuSans-114"/>
     <use x="780.994141" xlink:href="#DejaVuSans-101"/>
     <use x="842.517578" xlink:href="#DejaVuSans-108"/>
     <use x="870.300781" xlink:href="#DejaVuSans-97"/>
     <use x="931.580078" xlink:href="#DejaVuSans-116"/>
     <use x="970.789062" xlink:href="#DejaVuSans-105"/>
     <use x="998.572266" xlink:href="#DejaVuSans-111"/>
     <use x="1059.753906" xlink:href="#DejaVuSans-110"/>
    </g>
   </g>
  </g>
 </g>
 <defs>
  <clipPath id="p634fd5dd2c">
   <rect height="148.254545" width="669.6" x="108" y="51.84"/>
  </clipPath>
  <clipPath id="p3ef40db627">
   <rect height="148.254545" width="669.6" x="108" y="229.745455"/>
  </clipPath>
 </defs>
</svg>
