<?xml version="1.0" encoding="utf-8" standalone="no"?>
<!DOCTYPE svg PUBLIC "-//W3C//DTD SVG 1.1//EN"
  "http://www.w3.org/Graphics/SVG/1.1/DTD/svg11.dtd">
<!-- Created with matplotlib (https://matplotlib.org/) -->
<svg height="432pt" version="1.1" viewBox="0 0 864 432" width="864pt" xmlns="http://www.w3.org/2000/svg" xmlns:xlink="http://www.w3.org/1999/xlink">
 <defs>
  <style type="text/css">
*{stroke-linecap:butt;stroke-linejoin:round;}
  </style>
 </defs>
 <g id="figure_1">
  <g id="patch_1">
   <path d="M 0 432 
L 864 432 
L 864 0 
L 0 0 
z
" style="fill:#ffffff;"/>
  </g>
  <g id="axes_1">
   <g id="patch_2">
    <path d="M 108 378 
L 777.6 378 
L 777.6 51.84 
L 108 51.84 
z
" style="fill:#ffffff;"/>
   </g>
   <g id="matplotlib.axis_1">
    <g id="xtick_1">
     <g id="line2d_1">
      <defs>
       <path d="M 0 0 
L 0 3.5 
" id="m74e06b28da" style="stroke:#000000;stroke-width:0.8;"/>
      </defs>
      <g>
       <use style="stroke:#000000;stroke-width:0.8;" x="138.991772" xlink:href="#m74e06b28da" y="378"/>
      </g>
     </g>
     <g id="text_1">
      <!-- 2015-01 -->
      <defs>
       <path d="M 19.1875 8.296875 
L 53.609375 8.296875 
L 53.609375 0 
L 7.328125 0 
L 7.328125 8.296875 
Q 12.9375 14.109375 22.625 23.890625 
Q 32.328125 33.6875 34.8125 36.53125 
Q 39.546875 41.84375 41.421875 45.53125 
Q 43.3125 49.21875 43.3125 52.78125 
Q 43.3125 58.59375 39.234375 62.25 
Q 35.15625 65.921875 28.609375 65.921875 
Q 23.96875 65.921875 18.8125 64.3125 
Q 13.671875 62.703125 7.8125 59.421875 
L 7.8125 69.390625 
Q 13.765625 71.78125 18.9375 73 
Q 24.125 74.21875 28.421875 74.21875 
Q 39.75 74.21875 46.484375 68.546875 
Q 53.21875 62.890625 53.21875 53.421875 
Q 53.21875 48.921875 51.53125 44.890625 
Q 49.859375 40.875 45.40625 35.40625 
Q 44.1875 33.984375 37.640625 27.21875 
Q 31.109375 20.453125 19.1875 8.296875 
z
" id="DejaVuSans-50"/>
       <path d="M 31.78125 66.40625 
Q 24.171875 66.40625 20.328125 58.90625 
Q 16.5 51.421875 16.5 36.375 
Q 16.5 21.390625 20.328125 13.890625 
Q 24.171875 6.390625 31.78125 6.390625 
Q 39.453125 6.390625 43.28125 13.890625 
Q 47.125 21.390625 47.125 36.375 
Q 47.125 51.421875 43.28125 58.90625 
Q 39.453125 66.40625 31.78125 66.40625 
z
M 31.78125 74.21875 
Q 44.046875 74.21875 50.515625 64.515625 
Q 56.984375 54.828125 56.984375 36.375 
Q 56.984375 17.96875 50.515625 8.265625 
Q 44.046875 -1.421875 31.78125 -1.421875 
Q 19.53125 -1.421875 13.0625 8.265625 
Q 6.59375 17.96875 6.59375 36.375 
Q 6.59375 54.828125 13.0625 64.515625 
Q 19.53125 74.21875 31.78125 74.21875 
z
" id="DejaVuSans-48"/>
       <path d="M 12.40625 8.296875 
L 28.515625 8.296875 
L 28.515625 63.921875 
L 10.984375 60.40625 
L 10.984375 69.390625 
L 28.421875 72.90625 
L 38.28125 72.90625 
L 38.28125 8.296875 
L 54.390625 8.296875 
L 54.390625 0 
L 12.40625 0 
z
" id="DejaVuSans-49"/>
       <path d="M 10.796875 72.90625 
L 49.515625 72.90625 
L 49.515625 64.59375 
L 19.828125 64.59375 
L 19.828125 46.734375 
Q 21.96875 47.46875 24.109375 47.828125 
Q 26.265625 48.1875 28.421875 48.1875 
Q 40.625 48.1875 47.75 41.5 
Q 54.890625 34.8125 54.890625 23.390625 
Q 54.890625 11.625 47.5625 5.09375 
Q 40.234375 -1.421875 26.90625 -1.421875 
Q 22.3125 -1.421875 17.546875 -0.640625 
Q 12.796875 0.140625 7.71875 1.703125 
L 7.71875 11.625 
Q 12.109375 9.234375 16.796875 8.0625 
Q 21.484375 6.890625 26.703125 6.890625 
Q 35.15625 6.890625 40.078125 11.328125 
Q 45.015625 15.765625 45.015625 23.390625 
Q 45.015625 31 40.078125 35.4375 
Q 35.15625 39.890625 26.703125 39.890625 
Q 22.75 39.890625 18.8125 39.015625 
Q 14.890625 38.140625 10.796875 36.28125 
z
" id="DejaVuSans-53"/>
       <path d="M 4.890625 31.390625 
L 31.203125 31.390625 
L 31.203125 23.390625 
L 4.890625 23.390625 
z
" id="DejaVuSans-45"/>
      </defs>
      <g transform="translate(118.100365 392.598437)scale(0.1 -0.1)">
       <use xlink:href="#DejaVuSans-50"/>
       <use x="63.623047" xlink:href="#DejaVuSans-48"/>
       <use x="127.246094" xlink:href="#DejaVuSans-49"/>
       <use x="190.869141" xlink:href="#DejaVuSans-53"/>
       <use x="254.492188" xlink:href="#DejaVuSans-45"/>
       <use x="290.576172" xlink:href="#DejaVuSans-48"/>
       <use x="354.199219" xlink:href="#DejaVuSans-49"/>
      </g>
     </g>
    </g>
    <g id="xtick_2">
     <g id="line2d_2">
      <g>
       <use style="stroke:#000000;stroke-width:0.8;" x="205.640743" xlink:href="#m74e06b28da" y="378"/>
      </g>
     </g>
     <g id="text_2">
      <!-- 2015-05 -->
      <g transform="translate(184.749337 392.598437)scale(0.1 -0.1)">
       <use xlink:href="#DejaVuSans-50"/>
       <use x="63.623047" xlink:href="#DejaVuSans-48"/>
       <use x="127.246094" xlink:href="#DejaVuSans-49"/>
       <use x="190.869141" xlink:href="#DejaVuSans-53"/>
       <use x="254.492188" xlink:href="#DejaVuSans-45"/>
       <use x="290.576172" xlink:href="#DejaVuSans-48"/>
       <use x="354.199219" xlink:href="#DejaVuSans-53"/>
      </g>
     </g>
    </g>
    <g id="xtick_3">
     <g id="line2d_3">
      <g>
       <use style="stroke:#000000;stroke-width:0.8;" x="273.955939" xlink:href="#m74e06b28da" y="378"/>
      </g>
     </g>
     <g id="text_3">
      <!-- 2015-09 -->
      <defs>
       <path d="M 10.984375 1.515625 
L 10.984375 10.5 
Q 14.703125 8.734375 18.5 7.8125 
Q 22.3125 6.890625 25.984375 6.890625 
Q 35.75 6.890625 40.890625 13.453125 
Q 46.046875 20.015625 46.78125 33.40625 
Q 43.953125 29.203125 39.59375 26.953125 
Q 35.25 24.703125 29.984375 24.703125 
Q 19.046875 24.703125 12.671875 31.3125 
Q 6.296875 37.9375 6.296875 49.421875 
Q 6.296875 60.640625 12.9375 67.421875 
Q 19.578125 74.21875 30.609375 74.21875 
Q 43.265625 74.21875 49.921875 64.515625 
Q 56.59375 54.828125 56.59375 36.375 
Q 56.59375 19.140625 48.40625 8.859375 
Q 40.234375 -1.421875 26.421875 -1.421875 
Q 22.703125 -1.421875 18.890625 -0.6875 
Q 15.09375 0.046875 10.984375 1.515625 
z
M 30.609375 32.421875 
Q 37.25 32.421875 41.125 36.953125 
Q 45.015625 41.5 45.015625 49.421875 
Q 45.015625 57.28125 41.125 61.84375 
Q 37.25 66.40625 30.609375 66.40625 
Q 23.96875 66.40625 20.09375 61.84375 
Q 16.21875 57.28125 16.21875 49.421875 
Q 16.21875 41.5 20.09375 36.953125 
Q 23.96875 32.421875 30.609375 32.421875 
z
" id="DejaVuSans-57"/>
      </defs>
      <g transform="translate(253.064533 392.598437)scale(0.1 -0.1)">
       <use xlink:href="#DejaVuSans-50"/>
       <use x="63.623047" xlink:href="#DejaVuSans-48"/>
       <use x="127.246094" xlink:href="#DejaVuSans-49"/>
       <use x="190.869141" xlink:href="#DejaVuSans-53"/>
       <use x="254.492188" xlink:href="#DejaVuSans-45"/>
       <use x="290.576172" xlink:href="#DejaVuSans-48"/>
       <use x="354.199219" xlink:href="#DejaVuSans-57"/>
      </g>
     </g>
    </g>
    <g id="xtick_4">
     <g id="line2d_4">
      <g>
       <use style="stroke:#000000;stroke-width:0.8;" x="341.715727" xlink:href="#m74e06b28da" y="378"/>
      </g>
     </g>
     <g id="text_4">
      <!-- 2016-01 -->
      <defs>
       <path d="M 33.015625 40.375 
Q 26.375 40.375 22.484375 35.828125 
Q 18.609375 31.296875 18.609375 23.390625 
Q 18.609375 15.53125 22.484375 10.953125 
Q 26.375 6.390625 33.015625 6.390625 
Q 39.65625 6.390625 43.53125 10.953125 
Q 47.40625 15.53125 47.40625 23.390625 
Q 47.40625 31.296875 43.53125 35.828125 
Q 39.65625 40.375 33.015625 40.375 
z
M 52.59375 71.296875 
L 52.59375 62.3125 
Q 48.875 64.0625 45.09375 64.984375 
Q 41.3125 65.921875 37.59375 65.921875 
Q 27.828125 65.921875 22.671875 59.328125 
Q 17.53125 52.734375 16.796875 39.40625 
Q 19.671875 43.65625 24.015625 45.921875 
Q 28.375 48.1875 33.59375 48.1875 
Q 44.578125 48.1875 50.953125 41.515625 
Q 57.328125 34.859375 57.328125 23.390625 
Q 57.328125 12.15625 50.6875 5.359375 
Q 44.046875 -1.421875 33.015625 -1.421875 
Q 20.359375 -1.421875 13.671875 8.265625 
Q 6.984375 17.96875 6.984375 36.375 
Q 6.984375 53.65625 15.1875 63.9375 
Q 23.390625 74.21875 37.203125 74.21875 
Q 40.921875 74.21875 44.703125 73.484375 
Q 48.484375 72.75 52.59375 71.296875 
z
" id="DejaVuSans-54"/>
      </defs>
      <g transform="translate(320.82432 392.598437)scale(0.1 -0.1)">
       <use xlink:href="#DejaVuSans-50"/>
       <use x="63.623047" xlink:href="#DejaVuSans-48"/>
       <use x="127.246094" xlink:href="#DejaVuSans-49"/>
       <use x="190.869141" xlink:href="#DejaVuSans-54"/>
       <use x="254.492188" xlink:href="#DejaVuSans-45"/>
       <use x="290.576172" xlink:href="#DejaVuSans-48"/>
       <use x="354.199219" xlink:href="#DejaVuSans-49"/>
      </g>
     </g>
    </g>
    <g id="xtick_5">
     <g id="line2d_5">
      <g>
       <use style="stroke:#000000;stroke-width:0.8;" x="408.920106" xlink:href="#m74e06b28da" y="378"/>
      </g>
     </g>
     <g id="text_5">
      <!-- 2016-05 -->
      <g transform="translate(388.0287 392.598437)scale(0.1 -0.1)">
       <use xlink:href="#DejaVuSans-50"/>
       <use x="63.623047" xlink:href="#DejaVuSans-48"/>
       <use x="127.246094" xlink:href="#DejaVuSans-49"/>
       <use x="190.869141" xlink:href="#DejaVuSans-54"/>
       <use x="254.492188" xlink:href="#DejaVuSans-45"/>
       <use x="290.576172" xlink:href="#DejaVuSans-48"/>
       <use x="354.199219" xlink:href="#DejaVuSans-53"/>
      </g>
     </g>
    </g>
    <g id="xtick_6">
     <g id="line2d_6">
      <g>
       <use style="stroke:#000000;stroke-width:0.8;" x="477.235302" xlink:href="#m74e06b28da" y="378"/>
      </g>
     </g>
     <g id="text_6">
      <!-- 2016-09 -->
      <g transform="translate(456.343896 392.598437)scale(0.1 -0.1)">
       <use xlink:href="#DejaVuSans-50"/>
       <use x="63.623047" xlink:href="#DejaVuSans-48"/>
       <use x="127.246094" xlink:href="#DejaVuSans-49"/>
       <use x="190.869141" xlink:href="#DejaVuSans-54"/>
       <use x="254.492188" xlink:href="#DejaVuSans-45"/>
       <use x="290.576172" xlink:href="#DejaVuSans-48"/>
       <use x="354.199219" xlink:href="#DejaVuSans-57"/>
      </g>
     </g>
    </g>
    <g id="xtick_7">
     <g id="line2d_7">
      <g>
       <use style="stroke:#000000;stroke-width:0.8;" x="544.99509" xlink:href="#m74e06b28da" y="378"/>
      </g>
     </g>
     <g id="text_7">
      <!-- 2017-01 -->
      <defs>
       <path d="M 8.203125 72.90625 
L 55.078125 72.90625 
L 55.078125 68.703125 
L 28.609375 0 
L 18.3125 0 
L 43.21875 64.59375 
L 8.203125 64.59375 
z
" id="DejaVuSans-55"/>
      </defs>
      <g transform="translate(524.103683 392.598437)scale(0.1 -0.1)">
       <use xlink:href="#DejaVuSans-50"/>
       <use x="63.623047" xlink:href="#DejaVuSans-48"/>
       <use x="127.246094" xlink:href="#DejaVuSans-49"/>
       <use x="190.869141" xlink:href="#DejaVuSans-55"/>
       <use x="254.492188" xlink:href="#DejaVuSans-45"/>
       <use x="290.576172" xlink:href="#DejaVuSans-48"/>
       <use x="354.199219" xlink:href="#DejaVuSans-49"/>
      </g>
     </g>
    </g>
    <g id="xtick_8">
     <g id="line2d_8">
      <g>
       <use style="stroke:#000000;stroke-width:0.8;" x="611.644061" xlink:href="#m74e06b28da" y="378"/>
      </g>
     </g>
     <g id="text_8">
      <!-- 2017-05 -->
      <g transform="translate(590.752655 392.598437)scale(0.1 -0.1)">
       <use xlink:href="#DejaVuSans-50"/>
       <use x="63.623047" xlink:href="#DejaVuSans-48"/>
       <use x="127.246094" xlink:href="#DejaVuSans-49"/>
       <use x="190.869141" xlink:href="#DejaVuSans-55"/>
       <use x="254.492188" xlink:href="#DejaVuSans-45"/>
       <use x="290.576172" xlink:href="#DejaVuSans-48"/>
       <use x="354.199219" xlink:href="#DejaVuSans-53"/>
      </g>
     </g>
    </g>
    <g id="xtick_9">
     <g id="line2d_9">
      <g>
       <use style="stroke:#000000;stroke-width:0.8;" x="679.959257" xlink:href="#m74e06b28da" y="378"/>
      </g>
     </g>
     <g id="text_9">
      <!-- 2017-09 -->
      <g transform="translate(659.067851 392.598437)scale(0.1 -0.1)">
       <use xlink:href="#DejaVuSans-50"/>
       <use x="63.623047" xlink:href="#DejaVuSans-48"/>
       <use x="127.246094" xlink:href="#DejaVuSans-49"/>
       <use x="190.869141" xlink:href="#DejaVuSans-55"/>
       <use x="254.492188" xlink:href="#DejaVuSans-45"/>
       <use x="290.576172" xlink:href="#DejaVuSans-48"/>
       <use x="354.199219" xlink:href="#DejaVuSans-57"/>
      </g>
     </g>
    </g>
    <g id="xtick_10">
     <g id="line2d_10">
      <g>
       <use style="stroke:#000000;stroke-width:0.8;" x="747.719044" xlink:href="#m74e06b28da" y="378"/>
      </g>
     </g>
     <g id="text_10">
      <!-- 2018-01 -->
      <defs>
       <path d="M 31.78125 34.625 
Q 24.75 34.625 20.71875 30.859375 
Q 16.703125 27.09375 16.703125 20.515625 
Q 16.703125 13.921875 20.71875 10.15625 
Q 24.75 6.390625 31.78125 6.390625 
Q 38.8125 6.390625 42.859375 10.171875 
Q 46.921875 13.96875 46.921875 20.515625 
Q 46.921875 27.09375 42.890625 30.859375 
Q 38.875 34.625 31.78125 34.625 
z
M 21.921875 38.8125 
Q 15.578125 40.375 12.03125 44.71875 
Q 8.5 49.078125 8.5 55.328125 
Q 8.5 64.0625 14.71875 69.140625 
Q 20.953125 74.21875 31.78125 74.21875 
Q 42.671875 74.21875 48.875 69.140625 
Q 55.078125 64.0625 55.078125 55.328125 
Q 55.078125 49.078125 51.53125 44.71875 
Q 48 40.375 41.703125 38.8125 
Q 48.828125 37.15625 52.796875 32.3125 
Q 56.78125 27.484375 56.78125 20.515625 
Q 56.78125 9.90625 50.3125 4.234375 
Q 43.84375 -1.421875 31.78125 -1.421875 
Q 19.734375 -1.421875 13.25 4.234375 
Q 6.78125 9.90625 6.78125 20.515625 
Q 6.78125 27.484375 10.78125 32.3125 
Q 14.796875 37.15625 21.921875 38.8125 
z
M 18.3125 54.390625 
Q 18.3125 48.734375 21.84375 45.5625 
Q 25.390625 42.390625 31.78125 42.390625 
Q 38.140625 42.390625 41.71875 45.5625 
Q 45.3125 48.734375 45.3125 54.390625 
Q 45.3125 60.0625 41.71875 63.234375 
Q 38.140625 66.40625 31.78125 66.40625 
Q 25.390625 66.40625 21.84375 63.234375 
Q 18.3125 60.0625 18.3125 54.390625 
z
" id="DejaVuSans-56"/>
      </defs>
      <g transform="translate(726.827638 392.598437)scale(0.1 -0.1)">
       <use xlink:href="#DejaVuSans-50"/>
       <use x="63.623047" xlink:href="#DejaVuSans-48"/>
       <use x="127.246094" xlink:href="#DejaVuSans-49"/>
       <use x="190.869141" xlink:href="#DejaVuSans-56"/>
       <use x="254.492188" xlink:href="#DejaVuSans-45"/>
       <use x="290.576172" xlink:href="#DejaVuSans-48"/>
       <use x="354.199219" xlink:href="#DejaVuSans-49"/>
      </g>
     </g>
    </g>
    <g id="text_11">
     <!-- Time -->
     <defs>
      <path d="M -0.296875 72.90625 
L 61.375 72.90625 
L 61.375 64.59375 
L 35.5 64.59375 
L 35.5 0 
L 25.59375 0 
L 25.59375 64.59375 
L -0.296875 64.59375 
z
" id="DejaVuSans-84"/>
      <path d="M 9.421875 54.6875 
L 18.40625 54.6875 
L 18.40625 0 
L 9.421875 0 
z
M 9.421875 75.984375 
L 18.40625 75.984375 
L 18.40625 64.59375 
L 9.421875 64.59375 
z
" id="DejaVuSans-105"/>
      <path d="M 52 44.1875 
Q 55.375 50.25 60.0625 53.125 
Q 64.75 56 71.09375 56 
Q 79.640625 56 84.28125 50.015625 
Q 88.921875 44.046875 88.921875 33.015625 
L 88.921875 0 
L 79.890625 0 
L 79.890625 32.71875 
Q 79.890625 40.578125 77.09375 44.375 
Q 74.3125 48.1875 68.609375 48.1875 
Q 61.625 48.1875 57.5625 43.546875 
Q 53.515625 38.921875 53.515625 30.90625 
L 53.515625 0 
L 44.484375 0 
L 44.484375 32.71875 
Q 44.484375 40.625 41.703125 44.40625 
Q 38.921875 48.1875 33.109375 48.1875 
Q 26.21875 48.1875 22.15625 43.53125 
Q 18.109375 38.875 18.109375 30.90625 
L 18.109375 0 
L 9.078125 0 
L 9.078125 54.6875 
L 18.109375 54.6875 
L 18.109375 46.1875 
Q 21.1875 51.21875 25.484375 53.609375 
Q 29.78125 56 35.6875 56 
Q 41.65625 56 45.828125 52.96875 
Q 50 49.953125 52 44.1875 
z
" id="DejaVuSans-109"/>
      <path d="M 56.203125 29.59375 
L 56.203125 25.203125 
L 14.890625 25.203125 
Q 15.484375 15.921875 20.484375 11.0625 
Q 25.484375 6.203125 34.421875 6.203125 
Q 39.59375 6.203125 44.453125 7.46875 
Q 49.3125 8.734375 54.109375 11.28125 
L 54.109375 2.78125 
Q 49.265625 0.734375 44.1875 -0.34375 
Q 39.109375 -1.421875 33.890625 -1.421875 
Q 20.796875 -1.421875 13.15625 6.1875 
Q 5.515625 13.8125 5.515625 26.8125 
Q 5.515625 40.234375 12.765625 48.109375 
Q 20.015625 56 32.328125 56 
Q 43.359375 56 49.78125 48.890625 
Q 56.203125 41.796875 56.203125 29.59375 
z
M 47.21875 32.234375 
Q 47.125 39.59375 43.09375 43.984375 
Q 39.0625 48.390625 32.421875 48.390625 
Q 24.90625 48.390625 20.390625 44.140625 
Q 15.875 39.890625 15.1875 32.171875 
z
" id="DejaVuSans-101"/>
     </defs>
     <g transform="translate(430.4125 406.276563)scale(0.1 -0.1)">
      <use xlink:href="#DejaVuSans-84"/>
      <use x="61.037109" xlink:href="#DejaVuSans-105"/>
      <use x="88.820312" xlink:href="#DejaVuSans-109"/>
      <use x="186.232422" xlink:href="#DejaVuSans-101"/>
     </g>
    </g>
   </g>
   <g id="matplotlib.axis_2">
    <g id="ytick_1">
     <g id="line2d_11">
      <defs>
       <path d="M 0 0 
L -3.5 0 
" id="m3581ee941f" style="stroke:#000000;stroke-width:0.8;"/>
      </defs>
      <g>
       <use style="stroke:#000000;stroke-width:0.8;" x="108" xlink:href="#m3581ee941f" y="377.42452"/>
      </g>
     </g>
     <g id="text_12">
      <!-- −30 -->
      <defs>
       <path d="M 10.59375 35.5 
L 73.1875 35.5 
L 73.1875 27.203125 
L 10.59375 27.203125 
z
" id="DejaVuSans-8722"/>
       <path d="M 40.578125 39.3125 
Q 47.65625 37.796875 51.625 33 
Q 55.609375 28.21875 55.609375 21.1875 
Q 55.609375 10.40625 48.1875 4.484375 
Q 40.765625 -1.421875 27.09375 -1.421875 
Q 22.515625 -1.421875 17.65625 -0.515625 
Q 12.796875 0.390625 7.625 2.203125 
L 7.625 11.71875 
Q 11.71875 9.328125 16.59375 8.109375 
Q 21.484375 6.890625 26.8125 6.890625 
Q 36.078125 6.890625 40.9375 10.546875 
Q 45.796875 14.203125 45.796875 21.1875 
Q 45.796875 27.640625 41.28125 31.265625 
Q 36.765625 34.90625 28.71875 34.90625 
L 20.21875 34.90625 
L 20.21875 43.015625 
L 29.109375 43.015625 
Q 36.375 43.015625 40.234375 45.921875 
Q 44.09375 48.828125 44.09375 54.296875 
Q 44.09375 59.90625 40.109375 62.90625 
Q 36.140625 65.921875 28.71875 65.921875 
Q 24.65625 65.921875 20.015625 65.03125 
Q 15.375 64.15625 9.8125 62.3125 
L 9.8125 71.09375 
Q 15.4375 72.65625 20.34375 73.4375 
Q 25.25 74.21875 29.59375 74.21875 
Q 40.828125 74.21875 47.359375 69.109375 
Q 53.90625 64.015625 53.90625 55.328125 
Q 53.90625 49.265625 50.4375 45.09375 
Q 46.96875 40.921875 40.578125 39.3125 
z
" id="DejaVuSans-51"/>
      </defs>
      <g transform="translate(79.895313 381.223739)scale(0.1 -0.1)">
       <use xlink:href="#DejaVuSans-8722"/>
       <use x="83.789062" xlink:href="#DejaVuSans-51"/>
       <use x="147.412109" xlink:href="#DejaVuSans-48"/>
      </g>
     </g>
    </g>
    <g id="ytick_2">
     <g id="line2d_12">
      <g>
       <use style="stroke:#000000;stroke-width:0.8;" x="108" xlink:href="#m3581ee941f" y="322.616925"/>
      </g>
     </g>
     <g id="text_13">
      <!-- −20 -->
      <g transform="translate(79.895313 326.416144)scale(0.1 -0.1)">
       <use xlink:href="#DejaVuSans-8722"/>
       <use x="83.789062" xlink:href="#DejaVuSans-50"/>
       <use x="147.412109" xlink:href="#DejaVuSans-48"/>
      </g>
     </g>
    </g>
    <g id="ytick_3">
     <g id="line2d_13">
      <g>
       <use style="stroke:#000000;stroke-width:0.8;" x="108" xlink:href="#m3581ee941f" y="267.80933"/>
      </g>
     </g>
     <g id="text_14">
      <!-- −10 -->
      <g transform="translate(79.895313 271.608548)scale(0.1 -0.1)">
       <use xlink:href="#DejaVuSans-8722"/>
       <use x="83.789062" xlink:href="#DejaVuSans-49"/>
       <use x="147.412109" xlink:href="#DejaVuSans-48"/>
      </g>
     </g>
    </g>
    <g id="ytick_4">
     <g id="line2d_14">
      <g>
       <use style="stroke:#000000;stroke-width:0.8;" x="108" xlink:href="#m3581ee941f" y="213.001734"/>
      </g>
     </g>
     <g id="text_15">
      <!-- 0 -->
      <g transform="translate(94.6375 216.800953)scale(0.1 -0.1)">
       <use xlink:href="#DejaVuSans-48"/>
      </g>
     </g>
    </g>
    <g id="ytick_5">
     <g id="line2d_15">
      <g>
       <use style="stroke:#000000;stroke-width:0.8;" x="108" xlink:href="#m3581ee941f" y="158.194139"/>
      </g>
     </g>
     <g id="text_16">
      <!-- 10 -->
      <g transform="translate(88.275 161.993358)scale(0.1 -0.1)">
       <use xlink:href="#DejaVuSans-49"/>
       <use x="63.623047" xlink:href="#DejaVuSans-48"/>
      </g>
     </g>
    </g>
    <g id="ytick_6">
     <g id="line2d_16">
      <g>
       <use style="stroke:#000000;stroke-width:0.8;" x="108" xlink:href="#m3581ee941f" y="103.386543"/>
      </g>
     </g>
     <g id="text_17">
      <!-- 20 -->
      <g transform="translate(88.275 107.185762)scale(0.1 -0.1)">
       <use xlink:href="#DejaVuSans-50"/>
       <use x="63.623047" xlink:href="#DejaVuSans-48"/>
      </g>
     </g>
    </g>
    <g id="text_18">
     <!-- Mean Temperature (˚C) -->
     <defs>
      <path d="M 9.8125 72.90625 
L 24.515625 72.90625 
L 43.109375 23.296875 
L 61.8125 72.90625 
L 76.515625 72.90625 
L 76.515625 0 
L 66.890625 0 
L 66.890625 64.015625 
L 48.09375 14.015625 
L 38.1875 14.015625 
L 19.390625 64.015625 
L 19.390625 0 
L 9.8125 0 
z
" id="DejaVuSans-77"/>
      <path d="M 34.28125 27.484375 
Q 23.390625 27.484375 19.1875 25 
Q 14.984375 22.515625 14.984375 16.5 
Q 14.984375 11.71875 18.140625 8.90625 
Q 21.296875 6.109375 26.703125 6.109375 
Q 34.1875 6.109375 38.703125 11.40625 
Q 43.21875 16.703125 43.21875 25.484375 
L 43.21875 27.484375 
z
M 52.203125 31.203125 
L 52.203125 0 
L 43.21875 0 
L 43.21875 8.296875 
Q 40.140625 3.328125 35.546875 0.953125 
Q 30.953125 -1.421875 24.3125 -1.421875 
Q 15.921875 -1.421875 10.953125 3.296875 
Q 6 8.015625 6 15.921875 
Q 6 25.140625 12.171875 29.828125 
Q 18.359375 34.515625 30.609375 34.515625 
L 43.21875 34.515625 
L 43.21875 35.40625 
Q 43.21875 41.609375 39.140625 45 
Q 35.0625 48.390625 27.6875 48.390625 
Q 23 48.390625 18.546875 47.265625 
Q 14.109375 46.140625 10.015625 43.890625 
L 10.015625 52.203125 
Q 14.9375 54.109375 19.578125 55.046875 
Q 24.21875 56 28.609375 56 
Q 40.484375 56 46.34375 49.84375 
Q 52.203125 43.703125 52.203125 31.203125 
z
" id="DejaVuSans-97"/>
      <path d="M 54.890625 33.015625 
L 54.890625 0 
L 45.90625 0 
L 45.90625 32.71875 
Q 45.90625 40.484375 42.875 44.328125 
Q 39.84375 48.1875 33.796875 48.1875 
Q 26.515625 48.1875 22.3125 43.546875 
Q 18.109375 38.921875 18.109375 30.90625 
L 18.109375 0 
L 9.078125 0 
L 9.078125 54.6875 
L 18.109375 54.6875 
L 18.109375 46.1875 
Q 21.34375 51.125 25.703125 53.5625 
Q 30.078125 56 35.796875 56 
Q 45.21875 56 50.046875 50.171875 
Q 54.890625 44.34375 54.890625 33.015625 
z
" id="DejaVuSans-110"/>
      <path id="DejaVuSans-32"/>
      <path d="M 18.109375 8.203125 
L 18.109375 -20.796875 
L 9.078125 -20.796875 
L 9.078125 54.6875 
L 18.109375 54.6875 
L 18.109375 46.390625 
Q 20.953125 51.265625 25.265625 53.625 
Q 29.59375 56 35.59375 56 
Q 45.5625 56 51.78125 48.09375 
Q 58.015625 40.1875 58.015625 27.296875 
Q 58.015625 14.40625 51.78125 6.484375 
Q 45.5625 -1.421875 35.59375 -1.421875 
Q 29.59375 -1.421875 25.265625 0.953125 
Q 20.953125 3.328125 18.109375 8.203125 
z
M 48.6875 27.296875 
Q 48.6875 37.203125 44.609375 42.84375 
Q 40.53125 48.484375 33.40625 48.484375 
Q 26.265625 48.484375 22.1875 42.84375 
Q 18.109375 37.203125 18.109375 27.296875 
Q 18.109375 17.390625 22.1875 11.75 
Q 26.265625 6.109375 33.40625 6.109375 
Q 40.53125 6.109375 44.609375 11.75 
Q 48.6875 17.390625 48.6875 27.296875 
z
" id="DejaVuSans-112"/>
      <path d="M 41.109375 46.296875 
Q 39.59375 47.171875 37.8125 47.578125 
Q 36.03125 48 33.890625 48 
Q 26.265625 48 22.1875 43.046875 
Q 18.109375 38.09375 18.109375 28.8125 
L 18.109375 0 
L 9.078125 0 
L 9.078125 54.6875 
L 18.109375 54.6875 
L 18.109375 46.1875 
Q 20.953125 51.171875 25.484375 53.578125 
Q 30.03125 56 36.53125 56 
Q 37.453125 56 38.578125 55.875 
Q 39.703125 55.765625 41.0625 55.515625 
z
" id="DejaVuSans-114"/>
      <path d="M 18.3125 70.21875 
L 18.3125 54.6875 
L 36.8125 54.6875 
L 36.8125 47.703125 
L 18.3125 47.703125 
L 18.3125 18.015625 
Q 18.3125 11.328125 20.140625 9.421875 
Q 21.96875 7.515625 27.59375 7.515625 
L 36.8125 7.515625 
L 36.8125 0 
L 27.59375 0 
Q 17.1875 0 13.234375 3.875 
Q 9.28125 7.765625 9.28125 18.015625 
L 9.28125 47.703125 
L 2.6875 47.703125 
L 2.6875 54.6875 
L 9.28125 54.6875 
L 9.28125 70.21875 
z
" id="DejaVuSans-116"/>
      <path d="M 8.5 21.578125 
L 8.5 54.6875 
L 17.484375 54.6875 
L 17.484375 21.921875 
Q 17.484375 14.15625 20.5 10.265625 
Q 23.53125 6.390625 29.59375 6.390625 
Q 36.859375 6.390625 41.078125 11.03125 
Q 45.3125 15.671875 45.3125 23.6875 
L 45.3125 54.6875 
L 54.296875 54.6875 
L 54.296875 0 
L 45.3125 0 
L 45.3125 8.40625 
Q 42.046875 3.421875 37.71875 1 
Q 33.40625 -1.421875 27.6875 -1.421875 
Q 18.265625 -1.421875 13.375 4.4375 
Q 8.5 10.296875 8.5 21.578125 
z
M 31.109375 56 
z
" id="DejaVuSans-117"/>
      <path d="M 31 75.875 
Q 24.46875 64.65625 21.28125 53.65625 
Q 18.109375 42.671875 18.109375 31.390625 
Q 18.109375 20.125 21.3125 9.0625 
Q 24.515625 -2 31 -13.1875 
L 23.1875 -13.1875 
Q 15.875 -1.703125 12.234375 9.375 
Q 8.59375 20.453125 8.59375 31.390625 
Q 8.59375 42.28125 12.203125 53.3125 
Q 15.828125 64.359375 23.1875 75.875 
z
" id="DejaVuSans-40"/>
      <path d="M 32.421875 74.421875 
Q 32.421875 77.484375 30.265625 79.625 
Q 28.125 81.78125 25 81.78125 
Q 21.828125 81.78125 19.703125 79.65625 
Q 17.578125 77.546875 17.578125 74.421875 
Q 17.578125 71.234375 19.703125 69.109375 
Q 21.828125 67 25 67 
Q 28.125 67 30.265625 69.140625 
Q 32.421875 71.296875 32.421875 74.421875 
z
M 38.375 74.421875 
Q 38.375 68.796875 34.484375 64.890625 
Q 30.609375 60.984375 25 60.984375 
Q 19.390625 60.984375 15.5 64.890625 
Q 11.625 68.796875 11.625 74.421875 
Q 11.625 80.03125 15.5 83.90625 
Q 19.390625 87.796875 25 87.796875 
Q 30.609375 87.796875 34.484375 83.90625 
Q 38.375 80.03125 38.375 74.421875 
z
" id="DejaVuSans-730"/>
      <path d="M 64.40625 67.28125 
L 64.40625 56.890625 
Q 59.421875 61.53125 53.78125 63.8125 
Q 48.140625 66.109375 41.796875 66.109375 
Q 29.296875 66.109375 22.65625 58.46875 
Q 16.015625 50.828125 16.015625 36.375 
Q 16.015625 21.96875 22.65625 14.328125 
Q 29.296875 6.6875 41.796875 6.6875 
Q 48.140625 6.6875 53.78125 8.984375 
Q 59.421875 11.28125 64.40625 15.921875 
L 64.40625 5.609375 
Q 59.234375 2.09375 53.4375 0.328125 
Q 47.65625 -1.421875 41.21875 -1.421875 
Q 24.65625 -1.421875 15.125 8.703125 
Q 5.609375 18.84375 5.609375 36.375 
Q 5.609375 53.953125 15.125 64.078125 
Q 24.65625 74.21875 41.21875 74.21875 
Q 47.75 74.21875 53.53125 72.484375 
Q 59.328125 70.75 64.40625 67.28125 
z
" id="DejaVuSans-67"/>
      <path d="M 8.015625 75.875 
L 15.828125 75.875 
Q 23.140625 64.359375 26.78125 53.3125 
Q 30.421875 42.28125 30.421875 31.390625 
Q 30.421875 20.453125 26.78125 9.375 
Q 23.140625 -1.703125 15.828125 -13.1875 
L 8.015625 -13.1875 
Q 14.5 -2 17.703125 9.0625 
Q 20.90625 20.125 20.90625 31.390625 
Q 20.90625 42.671875 17.703125 53.65625 
Q 14.5 64.65625 8.015625 75.875 
z
" id="DejaVuSans-41"/>
     </defs>
     <g transform="translate(73.815625 274.231719)rotate(-90)scale(0.1 -0.1)">
      <use xlink:href="#DejaVuSans-77"/>
      <use x="86.279297" xlink:href="#DejaVuSans-101"/>
      <use x="147.802734" xlink:href="#DejaVuSans-97"/>
      <use x="209.082031" xlink:href="#DejaVuSans-110"/>
      <use x="272.460938" xlink:href="#DejaVuSans-32"/>
      <use x="304.248047" xlink:href="#DejaVuSans-84"/>
      <use x="365.066406" xlink:href="#DejaVuSans-101"/>
      <use x="426.589844" xlink:href="#DejaVuSans-109"/>
      <use x="524.001953" xlink:href="#DejaVuSans-112"/>
      <use x="587.478516" xlink:href="#DejaVuSans-101"/>
      <use x="649.001953" xlink:href="#DejaVuSans-114"/>
      <use x="690.115234" xlink:href="#DejaVuSans-97"/>
      <use x="751.394531" xlink:href="#DejaVuSans-116"/>
      <use x="790.603516" xlink:href="#DejaVuSans-117"/>
      <use x="853.982422" xlink:href="#DejaVuSans-114"/>
      <use x="895.064453" xlink:href="#DejaVuSans-101"/>
      <use x="956.587891" xlink:href="#DejaVuSans-32"/>
      <use x="988.375" xlink:href="#DejaVuSans-40"/>
      <use x="1027.388672" xlink:href="#DejaVuSans-730"/>
      <use x="1077.388672" xlink:href="#DejaVuSans-67"/>
      <use x="1147.212891" xlink:href="#DejaVuSans-41"/>
     </g>
    </g>
   </g>
   <g id="line2d_17">
    <path clip-path="url(#p38fcb6bd8a)" d="M 138.436364 283.703532 
L 138.991772 227.251709 
L 139.54718 206.424823 
L 140.102588 202.588291 
L 140.657996 209.165202 
L 141.768812 313.84771 
L 142.32422 313.299634 
L 143.435036 257.395886 
L 143.990445 241.501684 
L 144.545853 218.482494 
L 145.101261 210.80943 
L 145.656669 221.770949 
L 146.212077 200.395987 
L 146.767485 201.492139 
L 147.322893 213.001734 
L 147.878301 211.905582 
L 148.433709 210.261354 
L 148.989117 213.54981 
L 149.544526 228.895937 
L 150.099934 283.155456 
L 150.655342 284.251608 
L 151.21075 245.886291 
L 151.766158 221.770949 
L 152.876974 268.905481 
L 153.98779 237.665152 
L 154.543198 226.155557 
L 155.098607 223.415177 
L 155.654015 219.578646 
L 156.209423 205.328671 
L 156.764831 222.319025 
L 157.320239 235.472848 
L 157.875647 237.117076 
L 158.431055 242.597836 
L 158.986463 260.684342 
L 160.097279 225.607481 
L 160.652687 239.857456 
L 161.208096 259.040114 
L 161.763504 231.088241 
L 162.318912 211.357506 
L 162.87432 211.905582 
L 163.429728 223.415177 
L 163.985136 232.184393 
L 164.540544 257.943962 
L 166.206768 227.251709 
L 166.762177 208.069051 
L 167.872993 200.944063 
L 168.428401 205.328671 
L 168.983809 198.203683 
L 169.539217 208.069051 
L 170.094625 206.424823 
L 170.650033 213.54981 
L 171.205441 202.588291 
L 172.316257 212.453658 
L 172.871666 213.001734 
L 173.427074 209.165202 
L 173.982482 208.617127 
L 174.53789 213.54981 
L 175.093298 206.972899 
L 175.648706 208.617127 
L 176.204114 180.665253 
L 176.759522 178.472949 
L 177.31493 174.088341 
L 177.870338 195.463304 
L 178.425747 200.395987 
L 178.981155 198.751759 
L 179.536563 193.271 
L 180.091971 190.53062 
L 180.647379 191.626772 
L 181.202787 190.53062 
L 181.758195 188.338316 
L 182.313603 188.886392 
L 182.869011 199.299835 
L 183.424419 227.799785 
L 183.979827 233.280544 
L 184.535236 197.655607 
L 185.090644 189.982544 
L 185.646052 209.713278 
L 186.20146 205.876747 
L 186.756868 212.453658 
L 187.312276 211.357506 
L 187.867684 215.742114 
L 188.9785 210.261354 
L 189.533908 198.203683 
L 190.089317 205.876747 
L 190.644725 199.847911 
L 191.200133 200.944063 
L 191.755541 199.847911 
L 192.310949 190.53062 
L 192.866357 187.242164 
L 193.421765 189.434468 
L 194.532581 159.290291 
L 195.087989 153.809531 
L 195.643397 158.742215 
L 196.198806 177.376797 
L 196.754214 188.338316 
L 197.309622 193.271 
L 197.86503 186.146012 
L 198.420438 192.174848 
L 198.975846 214.097886 
L 199.531254 213.54981 
L 200.086662 192.722924 
L 201.197478 174.636417 
L 201.752887 179.021025 
L 202.308295 175.184493 
L 202.863703 166.415278 
L 203.419111 142.299936 
L 204.529927 111.607683 
L 205.085335 143.396088 
L 205.640743 159.838367 
L 206.196151 135.174949 
L 206.751559 151.617227 
L 207.306967 159.838367 
L 209.5286 148.328772 
L 210.084008 141.75186 
L 210.639416 128.598037 
L 211.194824 132.434569 
L 211.750232 121.47305 
L 212.30564 122.021126 
L 212.861048 130.242265 
L 213.416457 153.261455 
L 213.971865 165.319126 
L 214.527273 164.77105 
L 215.082681 164.77105 
L 215.638089 165.319126 
L 216.748905 115.99229 
L 217.304313 107.771151 
L 217.859721 134.078797 
L 218.415129 134.078797 
L 218.970537 131.886493 
L 219.525946 106.674999 
L 220.081354 88.588493 
L 220.636762 102.838467 
L 221.19217 106.126923 
L 221.747578 101.742316 
L 222.302986 108.319227 
L 222.858394 119.828822 
L 223.413802 115.444214 
L 223.96921 98.45386 
L 224.524618 103.386543 
L 225.080027 140.107632 
L 225.635435 132.982645 
L 226.190843 109.415379 
L 226.746251 103.934619 
L 227.301659 122.021126 
L 227.857067 130.790341 
L 228.412475 129.146113 
L 228.967883 124.761506 
L 229.523291 109.415379 
L 230.078699 82.011581 
L 230.634107 91.328872 
L 231.189516 126.953809 
L 232.300332 132.982645 
L 233.411148 112.155759 
L 233.966556 115.444214 
L 234.521964 100.646164 
L 235.077372 105.030771 
L 235.63278 101.742316 
L 236.188188 105.030771 
L 236.743597 100.646164 
L 237.299005 111.059607 
L 237.854413 132.434569 
L 238.409821 115.99229 
L 238.965229 118.73267 
L 239.520637 102.838467 
L 240.076045 102.290392 
L 240.631453 116.540366 
L 241.186861 82.559657 
L 241.742269 85.300037 
L 242.297678 120.924974 
L 242.853086 122.569202 
L 243.408494 108.319227 
L 243.963902 88.588493 
L 244.51931 103.934619 
L 245.074718 129.146113 
L 245.630126 132.434569 
L 246.185534 145.040316 
L 246.740942 128.598037 
L 247.29635 124.21343 
L 248.407167 117.088442 
L 248.962575 121.47305 
L 249.517983 116.540366 
L 250.073391 122.021126 
L 250.628799 130.790341 
L 251.184207 117.636518 
L 251.739615 114.348063 
L 252.295023 107.771151 
L 252.850431 108.319227 
L 253.405839 100.646164 
L 253.961248 96.261556 
L 254.516656 101.742316 
L 255.072064 103.386543 
L 255.627472 106.126923 
L 256.18288 109.963455 
L 256.738288 121.47305 
L 257.293696 121.47305 
L 257.849104 116.540366 
L 258.404512 112.703835 
L 258.95992 115.99229 
L 259.515328 114.348063 
L 260.626145 87.492341 
L 261.181553 87.492341 
L 261.736961 82.559657 
L 262.292369 99.550012 
L 262.847777 102.838467 
L 263.403185 90.232721 
L 263.958593 119.828822 
L 264.514001 124.761506 
L 265.069409 137.915329 
L 265.624818 141.203784 
L 266.180226 146.684544 
L 267.291042 128.049961 
L 267.84645 123.117278 
L 268.401858 116.540366 
L 268.957266 115.444214 
L 269.512674 136.819177 
L 270.068082 129.694189 
L 270.62349 111.059607 
L 271.178898 109.415379 
L 271.734307 115.444214 
L 272.289715 111.059607 
L 272.845123 129.694189 
L 273.400531 132.434569 
L 273.955939 137.367253 
L 274.511347 135.723025 
L 275.066755 139.01148 
L 275.622163 137.915329 
L 276.732979 137.915329 
L 277.288388 139.559556 
L 277.843796 151.069151 
L 278.399204 146.136468 
L 278.954612 154.357607 
L 279.51002 146.684544 
L 280.065428 146.684544 
L 280.620836 157.646063 
L 281.176244 159.838367 
L 281.731652 156.001835 
L 282.28706 144.49224 
L 282.842468 128.049961 
L 283.397877 103.934619 
L 283.953285 112.155759 
L 284.508693 129.694189 
L 285.064101 111.607683 
L 285.619509 132.982645 
L 286.174917 136.819177 
L 286.730325 119.280746 
L 287.285733 114.348063 
L 287.841141 116.540366 
L 288.396549 112.155759 
L 288.951958 135.174949 
L 289.507366 172.444114 
L 290.062774 162.578746 
L 290.618182 165.867202 
L 291.17359 149.972999 
L 291.728998 141.75186 
L 292.284406 165.319126 
L 292.839814 144.49224 
L 293.95063 208.069051 
L 294.506038 206.424823 
L 295.061447 214.097886 
L 295.616855 202.040215 
L 296.172263 199.847911 
L 296.727671 188.338316 
L 297.838487 194.367152 
L 298.393895 182.857557 
L 298.949303 185.597936 
L 299.504711 185.049861 
L 300.060119 172.99219 
L 300.615528 180.665253 
L 301.170936 209.165202 
L 301.726344 220.126722 
L 302.281752 203.684443 
L 302.83716 199.847911 
L 303.392568 188.886392 
L 303.947976 181.213329 
L 304.503384 182.309481 
L 305.058792 184.501785 
L 305.6142 202.588291 
L 306.169608 209.165202 
L 306.725017 205.328671 
L 307.280425 215.742114 
L 307.835833 189.434468 
L 308.946649 166.963354 
L 309.502057 183.405633 
L 310.057465 179.569101 
L 310.612873 211.357506 
L 311.168281 223.963253 
L 311.723689 212.453658 
L 312.834506 199.299835 
L 313.389914 202.588291 
L 313.945322 204.232519 
L 314.50073 199.847911 
L 315.056138 206.424823 
L 315.611546 224.511329 
L 316.166954 223.963253 
L 316.722362 220.674798 
L 317.27777 222.319025 
L 317.833179 204.232519 
L 318.388587 190.53062 
L 318.943995 183.953709 
L 319.499403 212.453658 
L 320.054811 221.222873 
L 320.610219 217.934418 
L 321.165627 217.386342 
L 321.721035 223.415177 
L 322.276443 237.665152 
L 322.831851 231.636317 
L 323.387259 239.30938 
L 324.498076 209.713278 
L 325.053484 208.617127 
L 325.608892 217.934418 
L 326.1643 210.80943 
L 326.719708 197.107532 
L 327.830524 179.569101 
L 328.385932 197.655607 
L 328.94134 209.713278 
L 329.496749 211.357506 
L 330.052157 208.069051 
L 330.607565 217.386342 
L 331.162973 211.357506 
L 331.718381 217.934418 
L 332.273789 220.126722 
L 332.829197 224.511329 
L 333.384605 237.117076 
L 333.940013 236.569 
L 334.495421 205.876747 
L 335.050829 191.626772 
L 335.606238 168.607582 
L 336.161646 179.021025 
L 336.717054 186.694088 
L 337.272462 182.309481 
L 337.82787 202.040215 
L 338.383278 200.395987 
L 339.494094 244.790139 
L 340.049502 260.136266 
L 340.60491 250.270899 
L 341.160319 264.520874 
L 341.715727 293.568899 
L 342.271135 302.886191 
L 342.826543 291.924671 
L 343.381951 303.982342 
L 343.937359 303.982342 
L 344.492767 291.924671 
L 345.048175 275.482393 
L 345.603583 277.126621 
L 346.158991 283.155456 
L 346.714399 290.82852 
L 347.269808 307.818874 
L 347.825216 282.60738 
L 348.380624 236.020924 
L 348.936032 235.472848 
L 349.49144 276.030469 
L 350.046848 276.578545 
L 350.602256 244.242064 
L 351.157664 271.645861 
L 351.713072 260.684342 
L 352.26848 262.32857 
L 352.823889 273.290089 
L 353.379297 278.770849 
L 353.934705 291.376596 
L 354.490113 298.501583 
L 355.045521 286.443912 
L 355.600929 271.645861 
L 356.711745 210.261354 
L 357.267153 202.588291 
L 357.822561 200.944063 
L 358.377969 197.655607 
L 358.933378 210.80943 
L 359.488786 211.905582 
L 360.044194 199.299835 
L 360.599602 203.684443 
L 361.15501 215.194038 
L 362.265826 221.770949 
L 362.821234 213.001734 
L 363.376642 217.386342 
L 363.93205 210.80943 
L 364.487459 210.80943 
L 365.042867 216.838266 
L 365.598275 206.424823 
L 366.153683 220.674798 
L 366.709091 204.232519 
L 367.264499 206.424823 
L 367.819907 228.895937 
L 368.375315 232.732468 
L 368.930723 239.857456 
L 369.486131 228.347861 
L 370.041539 241.501684 
L 370.596948 231.088241 
L 371.152356 204.232519 
L 371.707764 220.674798 
L 372.81858 210.80943 
L 373.373988 205.876747 
L 373.929396 215.194038 
L 374.484804 215.742114 
L 375.040212 232.732468 
L 375.59562 211.357506 
L 376.151029 211.905582 
L 376.706437 211.357506 
L 377.817253 202.040215 
L 378.372661 206.424823 
L 378.928069 203.136367 
L 379.483477 187.242164 
L 380.038885 192.722924 
L 380.594293 193.819076 
L 381.149701 199.847911 
L 381.705109 209.713278 
L 382.260518 213.54981 
L 382.815926 222.867101 
L 383.371334 209.165202 
L 383.926742 199.847911 
L 385.037558 243.693988 
L 385.592966 246.434367 
L 386.703782 231.088241 
L 387.25919 229.992089 
L 387.814599 232.732468 
L 388.370007 217.386342 
L 388.925415 205.876747 
L 389.480823 201.492139 
L 390.036231 194.367152 
L 390.591639 193.271 
L 391.147047 187.242164 
L 391.702455 185.597936 
L 392.257863 196.01138 
L 392.813271 199.847911 
L 393.368679 191.078696 
L 393.924088 188.338316 
L 394.479496 193.271 
L 395.034904 187.79024 
L 395.590312 180.117177 
L 396.701128 152.713379 
L 397.256536 149.424924 
L 397.811944 168.607582 
L 398.367352 172.444114 
L 398.92276 163.126822 
L 399.478169 151.617227 
L 400.033577 157.646063 
L 400.588985 196.01138 
L 401.699801 156.001835 
L 402.810617 170.799886 
L 403.366025 184.501785 
L 403.921433 186.694088 
L 404.476841 182.857557 
L 405.03225 168.607582 
L 405.587658 143.944164 
L 406.143066 135.723025 
L 406.698474 145.588392 
L 407.253882 134.626873 
L 407.80929 139.01148 
L 408.364698 148.876848 
L 408.920106 150.521075 
L 409.475514 135.174949 
L 410.030922 131.886493 
L 410.58633 130.242265 
L 411.141739 158.194139 
L 411.697147 134.626873 
L 412.252555 128.049961 
L 412.807963 124.21343 
L 413.363371 116.540366 
L 413.918779 121.47305 
L 414.474187 112.155759 
L 415.029595 151.069151 
L 415.585003 152.713379 
L 416.140411 146.684544 
L 416.69582 143.944164 
L 417.251228 149.972999 
L 417.806636 145.040316 
L 418.362044 136.819177 
L 418.917452 135.174949 
L 420.028268 151.069151 
L 420.583676 148.876848 
L 421.139084 136.819177 
L 421.694492 133.530721 
L 422.2499 118.184594 
L 422.805309 114.896138 
L 423.360717 102.838467 
L 423.916125 94.069252 
L 424.471533 96.809632 
L 425.026941 95.165404 
L 425.582349 108.867303 
L 426.137757 128.049961 
L 427.248573 115.99229 
L 427.803981 120.924974 
L 428.914798 165.319126 
L 429.470206 170.799886 
L 430.025614 149.972999 
L 430.581022 139.01148 
L 431.13643 132.434569 
L 432.247246 149.424924 
L 433.358062 126.953809 
L 434.468879 97.357708 
L 435.579695 84.751961 
L 436.135103 92.9731 
L 436.690511 90.232721 
L 437.245919 80.915429 
L 437.801327 88.040417 
L 438.356735 100.098088 
L 438.912143 94.617328 
L 439.467551 83.655809 
L 440.02296 66.665455 
L 440.578368 76.530822 
L 441.133776 102.290392 
L 441.689184 102.838467 
L 442.244592 94.069252 
L 442.8 91.328872 
L 443.355408 85.848113 
L 443.910816 84.751961 
L 444.466224 89.684645 
L 445.021632 124.21343 
L 445.57704 120.924974 
L 446.132449 113.251911 
L 446.687857 135.723025 
L 447.243265 118.184594 
L 447.798673 111.607683 
L 448.354081 109.415379 
L 448.909489 99.550012 
L 449.464897 86.944265 
L 450.020305 102.290392 
L 450.575713 85.848113 
L 451.131121 83.655809 
L 451.68653 94.069252 
L 452.241938 99.550012 
L 452.797346 91.328872 
L 453.352754 95.71348 
L 453.908162 107.223075 
L 454.46357 115.99229 
L 455.018978 100.646164 
L 455.574386 88.588493 
L 456.129794 91.876948 
L 456.685202 94.069252 
L 457.24061 88.040417 
L 457.796019 90.232721 
L 458.351427 82.559657 
L 458.906835 77.626974 
L 459.462243 86.396189 
L 460.017651 81.463505 
L 460.573059 74.338518 
L 461.128467 107.771151 
L 461.683875 100.646164 
L 462.239283 96.809632 
L 462.794691 84.751961 
L 463.3501 77.626974 
L 463.905508 114.896138 
L 464.460916 104.482695 
L 465.571732 95.165404 
L 466.12714 117.636518 
L 466.682548 130.242265 
L 467.237956 126.405733 
L 467.793364 135.723025 
L 468.348772 121.47305 
L 468.90418 117.088442 
L 469.459589 102.290392 
L 470.014997 98.45386 
L 470.570405 105.030771 
L 471.125813 97.357708 
L 471.681221 95.71348 
L 472.236629 95.165404 
L 472.792037 105.578847 
L 473.347445 122.021126 
L 473.902853 121.47305 
L 474.458261 98.45386 
L 475.01367 106.126923 
L 475.569078 125.857658 
L 476.124486 101.19424 
L 476.679894 130.242265 
L 477.235302 137.915329 
L 477.79071 123.665354 
L 478.346118 122.569202 
L 478.901526 135.174949 
L 479.456934 133.530721 
L 480.012342 137.367253 
L 480.56775 136.819177 
L 481.123159 129.146113 
L 481.678567 141.203784 
L 482.233975 137.367253 
L 482.789383 139.01148 
L 483.344791 119.280746 
L 483.900199 140.107632 
L 484.455607 153.261455 
L 485.011015 154.905683 
L 485.566423 153.809531 
L 486.121831 162.03067 
L 486.67724 165.319126 
L 487.232648 173.540266 
L 487.788056 165.319126 
L 488.343464 163.674898 
L 488.898872 169.155658 
L 489.45428 169.155658 
L 490.009688 169.703734 
L 490.565096 163.674898 
L 491.120504 160.934519 
L 491.675912 164.222974 
L 492.231321 170.799886 
L 492.786729 174.088341 
L 493.342137 151.617227 
L 493.897545 143.396088 
L 494.452953 150.521075 
L 495.008361 134.078797 
L 495.563769 150.521075 
L 496.119177 152.713379 
L 496.674585 165.867202 
L 497.229993 168.059506 
L 497.785401 166.963354 
L 498.34081 170.25181 
L 498.896218 193.819076 
L 499.451626 189.982544 
L 500.007034 193.819076 
L 500.562442 204.232519 
L 501.11785 195.463304 
L 501.673258 191.626772 
L 502.228666 195.463304 
L 502.784074 194.915228 
L 503.339482 193.271 
L 503.894891 200.944063 
L 504.450299 203.684443 
L 505.005707 204.780595 
L 505.561115 202.040215 
L 506.116523 194.915228 
L 506.671931 207.520975 
L 507.227339 206.424823 
L 507.782747 205.876747 
L 508.338155 211.357506 
L 508.893563 206.424823 
L 510.559788 221.770949 
L 511.115196 231.636317 
L 511.670604 226.155557 
L 512.226012 218.482494 
L 512.78142 216.29019 
L 513.336828 229.992089 
L 513.892236 233.82862 
L 514.447644 219.578646 
L 515.003052 209.165202 
L 515.558461 217.934418 
L 516.113869 231.636317 
L 516.669277 219.578646 
L 517.224685 248.626671 
L 517.780093 235.472848 
L 518.335501 232.184393 
L 518.890909 236.569 
L 519.446317 233.82862 
L 520.557133 220.126722 
L 521.112541 206.424823 
L 521.66795 209.165202 
L 522.778766 236.020924 
L 523.334174 238.761304 
L 523.889582 237.665152 
L 524.44499 206.424823 
L 525.000398 215.194038 
L 525.555806 205.876747 
L 526.111214 219.578646 
L 526.666622 267.80933 
L 527.222031 274.934317 
L 528.332847 243.145912 
L 528.888255 235.472848 
L 529.443663 242.597836 
L 529.999071 244.790139 
L 530.554479 248.078595 
L 531.109887 278.222773 
L 531.665295 239.857456 
L 532.220703 240.405532 
L 532.776111 227.799785 
L 533.33152 248.626671 
L 533.886928 261.780494 
L 534.442336 279.867001 
L 534.997744 273.838165 
L 535.553152 264.520874 
L 536.10856 289.184292 
L 536.663968 251.367051 
L 537.219376 221.222873 
L 537.774784 220.674798 
L 538.330192 236.569 
L 538.885601 216.29019 
L 539.441009 215.194038 
L 539.996417 220.674798 
L 540.551825 214.645962 
L 541.107233 216.29019 
L 541.662641 216.29019 
L 542.218049 209.165202 
L 542.773457 214.097886 
L 543.884273 226.155557 
L 544.439681 213.001734 
L 544.99509 204.780595 
L 545.550498 206.972899 
L 546.105906 243.693988 
L 546.661314 269.453557 
L 547.216722 277.126621 
L 547.77213 347.280343 
L 548.327538 363.174545 
L 548.882946 353.309178 
L 549.438354 328.097684 
L 549.993762 267.80933 
L 550.549171 263.424722 
L 551.104579 261.232418 
L 551.659987 234.376696 
L 552.215395 229.444013 
L 552.770803 219.578646 
L 553.326211 218.482494 
L 553.881619 233.280544 
L 554.437027 238.761304 
L 554.992435 234.376696 
L 555.547843 225.059405 
L 556.65866 238.761304 
L 557.214068 213.54981 
L 557.769476 215.742114 
L 558.324884 270.549709 
L 558.880292 299.597735 
L 559.4357 241.501684 
L 559.991108 222.319025 
L 560.546516 247.530519 
L 561.101924 263.972798 
L 561.657332 265.06895 
L 562.212741 234.376696 
L 562.768149 255.203583 
L 563.323557 260.136266 
L 563.878965 270.549709 
L 564.434373 262.876646 
L 565.545189 320.424621 
L 566.100597 303.434267 
L 566.656005 259.040114 
L 567.211413 230.540165 
L 567.766821 220.126722 
L 568.877638 254.107431 
L 569.433046 217.934418 
L 569.988454 224.511329 
L 570.543862 246.982443 
L 571.09927 232.732468 
L 571.654678 206.424823 
L 572.210086 205.876747 
L 572.765494 200.944063 
L 573.320902 205.328671 
L 573.876311 227.799785 
L 574.431719 228.895937 
L 574.987127 208.069051 
L 576.097943 228.895937 
L 576.653351 209.713278 
L 577.208759 204.780595 
L 577.764167 192.722924 
L 578.319575 193.271 
L 578.874983 199.299835 
L 579.430392 198.203683 
L 579.9858 194.367152 
L 580.541208 214.645962 
L 581.096616 214.097886 
L 581.652024 205.876747 
L 582.207432 187.79024 
L 582.76284 190.53062 
L 583.318248 191.626772 
L 583.873656 196.01138 
L 584.429064 203.136367 
L 584.984472 200.395987 
L 585.539881 188.338316 
L 586.095289 198.203683 
L 586.650697 198.751759 
L 587.206105 194.367152 
L 587.761513 197.655607 
L 588.316921 198.751759 
L 588.872329 192.174848 
L 589.427737 177.376797 
L 589.983145 181.761405 
L 591.093962 208.617127 
L 591.64937 204.232519 
L 592.204778 204.780595 
L 592.760186 208.617127 
L 593.315594 220.126722 
L 593.871002 227.799785 
L 594.42641 221.222873 
L 594.981818 208.069051 
L 595.537226 190.53062 
L 596.648042 197.655607 
L 597.203451 175.732569 
L 597.758859 145.040316 
L 598.314267 156.549911 
L 598.869675 186.146012 
L 599.425083 190.53062 
L 599.980491 174.636417 
L 600.535899 149.972999 
L 601.091307 182.857557 
L 601.646715 191.078696 
L 602.202123 189.434468 
L 602.757532 212.453658 
L 603.31294 208.069051 
L 603.868348 216.838266 
L 604.423756 215.194038 
L 604.979164 210.80943 
L 606.08998 195.463304 
L 606.645388 182.309481 
L 607.756204 194.367152 
L 608.311612 182.309481 
L 608.867021 156.001835 
L 609.422429 185.049861 
L 609.977837 186.146012 
L 610.533245 136.271101 
L 611.088653 111.059607 
L 611.644061 106.126923 
L 612.199469 108.319227 
L 612.754877 152.713379 
L 613.310285 168.059506 
L 613.865693 164.222974 
L 614.421102 139.01148 
L 614.97651 173.540266 
L 615.531918 195.463304 
L 616.087326 198.751759 
L 616.642734 192.722924 
L 617.198142 199.847911 
L 617.75355 192.722924 
L 618.308958 174.636417 
L 619.419774 156.001835 
L 619.975182 162.578746 
L 620.530591 174.636417 
L 621.085999 143.396088 
L 621.641407 135.723025 
L 622.196815 123.665354 
L 622.752223 146.136468 
L 623.307631 157.646063 
L 623.863039 135.723025 
L 624.418447 123.665354 
L 624.973855 127.501885 
L 625.529263 126.405733 
L 626.64008 159.838367 
L 627.195488 127.501885 
L 627.750896 135.174949 
L 628.306304 136.819177 
L 628.861712 139.01148 
L 629.41712 171.896038 
L 629.972528 179.569101 
L 630.527936 163.674898 
L 631.083344 156.549911 
L 632.194161 129.694189 
L 632.749569 117.636518 
L 633.304977 125.857658 
L 633.860385 123.665354 
L 634.415793 122.021126 
L 634.971201 117.088442 
L 635.526609 131.338417 
L 636.082017 137.915329 
L 636.637425 161.482595 
L 637.192833 146.136468 
L 638.30365 108.319227 
L 638.859058 123.117278 
L 639.414466 114.348063 
L 639.969874 135.174949 
L 640.525282 148.876848 
L 641.08069 147.780696 
L 641.636098 135.174949 
L 642.191506 134.626873 
L 642.746914 110.511531 
L 643.302322 118.184594 
L 643.857731 122.021126 
L 644.413139 117.088442 
L 644.968547 108.319227 
L 645.523955 106.126923 
L 646.079363 122.569202 
L 646.634771 128.598037 
L 647.190179 126.405733 
L 647.745587 123.665354 
L 648.300995 128.049961 
L 648.856403 144.49224 
L 649.411812 152.165303 
L 649.96722 143.944164 
L 650.522628 131.338417 
L 651.078036 111.607683 
L 651.633444 113.251911 
L 652.188852 112.155759 
L 652.74426 108.319227 
L 653.299668 98.45386 
L 653.855076 95.71348 
L 654.410484 123.117278 
L 654.965893 115.99229 
L 655.521301 121.47305 
L 656.076709 117.636518 
L 656.632117 115.99229 
L 657.187525 124.21343 
L 657.742933 120.376898 
L 658.298341 115.444214 
L 658.853749 108.319227 
L 659.964565 81.463505 
L 660.519973 98.45386 
L 661.075382 75.43467 
L 662.186198 102.838467 
L 662.741606 95.165404 
L 663.297014 91.876948 
L 663.852422 93.521176 
L 664.40783 105.030771 
L 664.963238 104.482695 
L 665.518646 107.771151 
L 666.074054 101.742316 
L 666.629463 111.059607 
L 667.184871 115.99229 
L 668.295687 105.030771 
L 668.851095 102.838467 
L 669.406503 97.905784 
L 669.961911 94.069252 
L 671.072727 117.636518 
L 672.738952 83.107733 
L 673.29436 80.915429 
L 673.849768 88.040417 
L 674.405176 81.463505 
L 674.960584 96.809632 
L 675.515992 122.569202 
L 676.0714 134.626873 
L 676.626808 133.530721 
L 677.182216 137.367253 
L 677.737624 151.617227 
L 678.293033 146.684544 
L 678.848441 145.040316 
L 679.403849 144.49224 
L 680.514665 119.828822 
L 681.070073 125.857658 
L 681.625481 135.723025 
L 682.180889 157.097987 
L 682.736297 153.809531 
L 683.291705 139.559556 
L 683.847113 144.49224 
L 684.402522 139.01148 
L 686.068746 101.742316 
L 686.624154 111.059607 
L 687.179562 122.569202 
L 687.73497 121.47305 
L 688.290378 139.559556 
L 688.845786 142.848012 
L 689.401194 120.924974 
L 689.956603 140.107632 
L 690.512011 148.328772 
L 691.067419 152.165303 
L 691.622827 153.809531 
L 692.178235 159.838367 
L 692.733643 157.646063 
L 693.289051 162.578746 
L 693.844459 152.165303 
L 694.399867 165.867202 
L 694.955275 171.896038 
L 695.510683 173.540266 
L 696.066092 169.155658 
L 696.6215 185.049861 
L 697.176908 190.53062 
L 697.732316 188.338316 
L 698.287724 180.117177 
L 698.843132 165.319126 
L 699.39854 173.540266 
L 699.953948 168.607582 
L 700.509356 165.867202 
L 701.064764 150.521075 
L 702.175581 172.444114 
L 702.730989 172.99219 
L 703.286397 164.77105 
L 704.397213 186.146012 
L 704.952621 185.597936 
L 706.063437 152.165303 
L 706.618845 174.088341 
L 707.174253 188.886392 
L 707.729662 199.847911 
L 708.28507 214.097886 
L 708.840478 210.261354 
L 709.395886 218.482494 
L 709.951294 215.194038 
L 710.506702 222.319025 
L 711.06211 213.54981 
L 711.617518 206.972899 
L 712.172926 191.078696 
L 712.728334 183.953709 
L 714.394559 226.155557 
L 714.949967 223.963253 
L 716.616191 183.953709 
L 717.171599 185.597936 
L 717.727007 204.232519 
L 718.282415 213.001734 
L 718.837823 205.328671 
L 719.393232 191.078696 
L 719.94864 191.626772 
L 720.504048 209.165202 
L 721.059456 206.424823 
L 721.614864 205.328671 
L 722.170272 199.847911 
L 722.72568 203.684443 
L 723.281088 199.847911 
L 723.836496 204.780595 
L 724.391904 204.780595 
L 724.947313 211.905582 
L 725.502721 216.838266 
L 726.058129 229.444013 
L 726.613537 237.665152 
L 727.168945 241.501684 
L 727.724353 243.145912 
L 728.279761 231.088241 
L 728.835169 229.992089 
L 729.390577 240.953608 
L 729.945985 225.607481 
L 731.056802 205.876747 
L 732.167618 214.097886 
L 732.723026 223.963253 
L 733.278434 226.703633 
L 733.833842 234.376696 
L 734.38925 237.117076 
L 734.944658 218.482494 
L 735.500066 210.261354 
L 736.055474 204.232519 
L 736.610883 213.54981 
L 737.166291 198.203683 
L 737.721699 209.165202 
L 738.277107 204.232519 
L 738.832515 196.559456 
L 739.387923 184.501785 
L 739.943331 210.80943 
L 740.498739 213.54981 
L 741.054147 210.261354 
L 741.609555 214.097886 
L 742.164964 229.992089 
L 742.720372 231.088241 
L 743.27578 221.770949 
L 743.831188 229.444013 
L 744.386596 220.126722 
L 744.942004 199.847911 
L 745.497412 206.972899 
L 746.05282 202.040215 
L 746.608228 201.492139 
L 747.163636 206.424823 
L 747.163636 206.424823 
" style="fill:none;stroke:#3d9970;stroke-linecap:square;stroke-width:0.5;"/>
   </g>
   <g id="patch_3">
    <path d="M 108 378 
L 108 51.84 
" style="fill:none;stroke:#000000;stroke-linecap:square;stroke-linejoin:miter;stroke-width:0.8;"/>
   </g>
   <g id="patch_4">
    <path d="M 777.6 378 
L 777.6 51.84 
" style="fill:none;stroke:#000000;stroke-linecap:square;stroke-linejoin:miter;stroke-width:0.8;"/>
   </g>
   <g id="patch_5">
    <path d="M 108 378 
L 777.6 378 
" style="fill:none;stroke:#000000;stroke-linecap:square;stroke-linejoin:miter;stroke-width:0.8;"/>
   </g>
   <g id="patch_6">
    <path d="M 108 51.84 
L 777.6 51.84 
" style="fill:none;stroke:#000000;stroke-linecap:square;stroke-linejoin:miter;stroke-width:0.8;"/>
   </g>
   <g id="text_19">
    <!-- Mean Temperature from 2010-2018 -->
    <defs>
     <path d="M 37.109375 75.984375 
L 37.109375 68.5 
L 28.515625 68.5 
Q 23.6875 68.5 21.796875 66.546875 
Q 19.921875 64.59375 19.921875 59.515625 
L 19.921875 54.6875 
L 34.71875 54.6875 
L 34.71875 47.703125 
L 19.921875 47.703125 
L 19.921875 0 
L 10.890625 0 
L 10.890625 47.703125 
L 2.296875 47.703125 
L 2.296875 54.6875 
L 10.890625 54.6875 
L 10.890625 58.5 
Q 10.890625 67.625 15.140625 71.796875 
Q 19.390625 75.984375 28.609375 75.984375 
z
" id="DejaVuSans-102"/>
     <path d="M 30.609375 48.390625 
Q 23.390625 48.390625 19.1875 42.75 
Q 14.984375 37.109375 14.984375 27.296875 
Q 14.984375 17.484375 19.15625 11.84375 
Q 23.34375 6.203125 30.609375 6.203125 
Q 37.796875 6.203125 41.984375 11.859375 
Q 46.1875 17.53125 46.1875 27.296875 
Q 46.1875 37.015625 41.984375 42.703125 
Q 37.796875 48.390625 30.609375 48.390625 
z
M 30.609375 56 
Q 42.328125 56 49.015625 48.375 
Q 55.71875 40.765625 55.71875 27.296875 
Q 55.71875 13.875 49.015625 6.21875 
Q 42.328125 -1.421875 30.609375 -1.421875 
Q 18.84375 -1.421875 12.171875 6.21875 
Q 5.515625 13.875 5.515625 27.296875 
Q 5.515625 40.765625 12.171875 48.375 
Q 18.84375 56 30.609375 56 
z
" id="DejaVuSans-111"/>
    </defs>
    <g transform="translate(334.793437 45.84)scale(0.12 -0.12)">
     <use xlink:href="#DejaVuSans-77"/>
     <use x="86.279297" xlink:href="#DejaVuSans-101"/>
     <use x="147.802734" xlink:href="#DejaVuSans-97"/>
     <use x="209.082031" xlink:href="#DejaVuSans-110"/>
     <use x="272.460938" xlink:href="#DejaVuSans-32"/>
     <use x="304.248047" xlink:href="#DejaVuSans-84"/>
     <use x="365.066406" xlink:href="#DejaVuSans-101"/>
     <use x="426.589844" xlink:href="#DejaVuSans-109"/>
     <use x="524.001953" xlink:href="#DejaVuSans-112"/>
     <use x="587.478516" xlink:href="#DejaVuSans-101"/>
     <use x="649.001953" xlink:href="#DejaVuSans-114"/>
     <use x="690.115234" xlink:href="#DejaVuSans-97"/>
     <use x="751.394531" xlink:href="#DejaVuSans-116"/>
     <use x="790.603516" xlink:href="#DejaVuSans-117"/>
     <use x="853.982422" xlink:href="#DejaVuSans-114"/>
     <use x="895.064453" xlink:href="#DejaVuSans-101"/>
     <use x="956.587891" xlink:href="#DejaVuSans-32"/>
     <use x="988.375" xlink:href="#DejaVuSans-102"/>
     <use x="1023.580078" xlink:href="#DejaVuSans-114"/>
     <use x="1064.662109" xlink:href="#DejaVuSans-111"/>
     <use x="1125.84375" xlink:href="#DejaVuSans-109"/>
     <use x="1223.255859" xlink:href="#DejaVuSans-32"/>
     <use x="1255.042969" xlink:href="#DejaVuSans-50"/>
     <use x="1318.666016" xlink:href="#DejaVuSans-48"/>
     <use x="1382.289062" xlink:href="#DejaVuSans-49"/>
     <use x="1445.912109" xlink:href="#DejaVuSans-48"/>
     <use x="1509.535156" xlink:href="#DejaVuSans-45"/>
     <use x="1545.619141" xlink:href="#DejaVuSans-50"/>
     <use x="1609.242188" xlink:href="#DejaVuSans-48"/>
     <use x="1672.865234" xlink:href="#DejaVuSans-49"/>
     <use x="1736.488281" xlink:href="#DejaVuSans-56"/>
    </g>
   </g>
  </g>
 </g>
 <defs>
  <clipPath id="p38fcb6bd8a">
   <rect height="326.16" width="669.6" x="108" y="51.84"/>
  </clipPath>
 </defs>
</svg>
